<svg width="460" height="47" viewBox="0 0 460 47" fill="none" xmlns="http://www.w3.org/2000/svg">
<path d="M6.83665e-05 17.1375C6.83665e-05 13.8415 0.736068 10.8975 2.20807 8.3055C3.71207 5.6815 5.74407 3.6495 8.30407 2.2095C10.8961 0.737499 13.7921 0.00149918 16.9921 0.00149918C20.7361 0.00149918 24.0161 0.961499 26.8321 2.8815C29.6481 4.8015 31.6161 7.4575 32.7361 10.8495H25.0081C24.2401 9.2495 23.1521 8.0495 21.7441 7.2495C20.3681 6.4495 18.7681 6.0495 16.9441 6.0495C14.9921 6.0495 13.2481 6.5135 11.7121 7.4415C10.2081 8.3375 9.02407 9.6175 8.16007 11.2815C7.32807 12.9455 6.91207 14.8975 6.91207 17.1375C6.91207 19.3455 7.32807 21.2975 8.16007 22.9935C9.02407 24.6575 10.2081 25.9535 11.7121 26.8815C13.2481 27.7775 14.9921 28.2255 16.9441 28.2255C18.7681 28.2255 20.3681 27.8255 21.7441 27.0255C23.1521 26.1935 24.2401 24.9775 25.0081 23.3775H32.7361C31.6161 26.8015 29.6481 29.4735 26.8321 31.3935C24.0481 33.2815 20.7681 34.2255 16.9921 34.2255C13.7921 34.2255 10.8961 33.5055 8.30407 32.0655C5.74407 30.5935 3.71207 28.5615 2.20807 25.9695C0.736068 23.3775 6.83665e-05 20.4335 6.83665e-05 17.1375ZM45.1958 11.4735C46.0598 10.0655 47.1798 8.9615 48.5558 8.1615C49.9638 7.3615 51.5638 6.9615 53.3558 6.9615V14.0175H51.5798C49.4678 14.0175 47.8678 14.5135 46.7798 15.5055C45.7238 16.4975 45.1958 18.2255 45.1958 20.6895V33.9375H38.4758V7.3455H45.1958V11.4735ZM83.3221 7.3455L66.8581 46.5135H59.7061L65.4661 33.2655L54.8101 7.3455H62.3461L69.2101 25.9215L76.1701 7.3455H83.3221ZM93.6646 11.1855C94.5286 9.9695 95.7126 8.9615 97.2166 8.1615C98.7526 7.3295 100.497 6.9135 102.449 6.9135C104.721 6.9135 106.769 7.4735 108.593 8.5935C110.449 9.7135 111.905 11.3135 112.961 13.3935C114.049 15.4415 114.593 17.8255 114.593 20.5455C114.593 23.2655 114.049 25.6815 112.961 27.7935C111.905 29.8735 110.449 31.4895 108.593 32.6415C106.769 33.7935 104.721 34.3695 102.449 34.3695C100.497 34.3695 98.7686 33.9695 97.2646 33.1695C95.7926 32.3695 94.5926 31.3615 93.6646 30.1455V46.6095H86.9446V7.3455H93.6646V11.1855ZM107.729 20.5455C107.729 18.9455 107.393 17.5695 106.721 16.4175C106.081 15.2335 105.217 14.3375 104.129 13.7295C103.073 13.1215 101.921 12.8175 100.673 12.8175C99.4566 12.8175 98.3046 13.1375 97.2166 13.7775C96.1606 14.3855 95.2966 15.2815 94.6246 16.4655C93.9846 17.6495 93.6646 19.0415 93.6646 20.6415C93.6646 22.2415 93.9846 23.6335 94.6246 24.8175C95.2966 26.0015 96.1606 26.9135 97.2166 27.5535C98.3046 28.1615 99.4566 28.4655 100.673 28.4655C101.921 28.4655 103.073 28.1455 104.129 27.5055C105.217 26.8655 106.081 25.9535 106.721 24.7695C107.393 23.5855 107.729 22.1775 107.729 20.5455ZM127.3 12.8655V25.7295C127.3 26.6255 127.508 27.2815 127.924 27.6975C128.372 28.0815 129.108 28.2735 130.132 28.2735H133.252V33.9375H129.028C123.364 33.9375 120.532 31.1855 120.532 25.6815V12.8655H117.364V7.3455H120.532V0.769498H127.3V7.3455H133.252V12.8655H127.3ZM149.893 34.3695C147.333 34.3695 145.029 33.8095 142.981 32.6895C140.933 31.5375 139.317 29.9215 138.133 27.8415C136.981 25.7615 136.405 23.3615 136.405 20.6415C136.405 17.9215 136.997 15.5215 138.181 13.4415C139.397 11.3615 141.045 9.7615 143.125 8.6415C145.205 7.4895 147.525 6.9135 150.085 6.9135C152.645 6.9135 154.965 7.4895 157.045 8.6415C159.125 9.7615 160.757 11.3615 161.941 13.4415C163.157 15.5215 163.765 17.9215 163.765 20.6415C163.765 23.3615 163.141 25.7615 161.893 27.8415C160.677 29.9215 159.013 31.5375 156.901 32.6895C154.821 33.8095 152.485 34.3695 149.893 34.3695ZM149.893 28.5135C151.109 28.5135 152.245 28.2255 153.301 27.6495C154.389 27.0415 155.253 26.1455 155.893 24.9615C156.533 23.7775 156.853 22.3375 156.853 20.6415C156.853 18.1135 156.181 16.1775 154.837 14.8335C153.525 13.4575 151.909 12.7695 149.989 12.7695C148.069 12.7695 146.453 13.4575 145.141 14.8335C143.861 16.1775 143.221 18.1135 143.221 20.6415C143.221 23.1695 143.845 25.1215 145.093 26.4975C146.373 27.8415 147.973 28.5135 149.893 28.5135ZM200.58 13.9695V19.6335H180.228V13.9695H200.58ZM217.922 17.1375C217.922 13.8415 218.658 10.8975 220.13 8.3055C221.634 5.6815 223.666 3.6495 226.226 2.2095C228.818 0.737499 231.714 0.00149918 234.914 0.00149918C238.658 0.00149918 241.938 0.961499 244.754 2.8815C247.57 4.8015 249.538 7.4575 250.658 10.8495H242.93C242.162 9.2495 241.074 8.0495 239.666 7.2495C238.29 6.4495 236.69 6.0495 234.866 6.0495C232.914 6.0495 231.17 6.5135 229.634 7.4415C228.13 8.3375 226.946 9.6175 226.082 11.2815C225.25 12.9455 224.834 14.8975 224.834 17.1375C224.834 19.3455 225.25 21.2975 226.082 22.9935C226.946 24.6575 228.13 25.9535 229.634 26.8815C231.17 27.7775 232.914 28.2255 234.866 28.2255C236.69 28.2255 238.29 27.8255 239.666 27.0255C241.074 26.1935 242.162 24.9775 242.93 23.3775H250.658C249.538 26.8015 247.57 29.4735 244.754 31.3935C241.97 33.2815 238.69 34.2255 234.914 34.2255C231.714 34.2255 228.818 33.5055 226.226 32.0655C223.666 30.5935 221.634 28.5615 220.13 25.9695C218.658 23.3775 217.922 20.4335 217.922 17.1375ZM268.206 34.3695C265.646 34.3695 263.342 33.8095 261.294 32.6895C259.246 31.5375 257.63 29.9215 256.446 27.8415C255.294 25.7615 254.718 23.3615 254.718 20.6415C254.718 17.9215 255.31 15.5215 256.494 13.4415C257.71 11.3615 259.358 9.7615 261.438 8.6415C263.518 7.4895 265.838 6.9135 268.398 6.9135C270.958 6.9135 273.278 7.4895 275.358 8.6415C277.438 9.7615 279.07 11.3615 280.254 13.4415C281.47 15.5215 282.078 17.9215 282.078 20.6415C282.078 23.3615 281.454 25.7615 280.206 27.8415C278.99 29.9215 277.326 31.5375 275.214 32.6895C273.134 33.8095 270.798 34.3695 268.206 34.3695ZM268.206 28.5135C269.422 28.5135 270.558 28.2255 271.614 27.6495C272.702 27.0415 273.566 26.1455 274.206 24.9615C274.846 23.7775 275.166 22.3375 275.166 20.6415C275.166 18.1135 274.494 16.1775 273.15 14.8335C271.838 13.4575 270.222 12.7695 268.302 12.7695C266.382 12.7695 264.766 13.4575 263.454 14.8335C262.174 16.1775 261.534 18.1135 261.534 20.6415C261.534 23.1695 262.158 25.1215 263.406 26.4975C264.686 27.8415 266.286 28.5135 268.206 28.5135ZM320.031 6.9615C323.295 6.9615 325.919 7.9695 327.903 9.9855C329.919 11.9695 330.927 14.7535 330.927 18.3375V33.9375H324.207V19.2495C324.207 17.1695 323.679 15.5855 322.623 14.4975C321.567 13.3775 320.127 12.8175 318.303 12.8175C316.479 12.8175 315.023 13.3775 313.935 14.4975C312.879 15.5855 312.351 17.1695 312.351 19.2495V33.9375H305.631V19.2495C305.631 17.1695 305.103 15.5855 304.047 14.4975C302.991 13.3775 301.551 12.8175 299.727 12.8175C297.871 12.8175 296.399 13.3775 295.311 14.4975C294.255 15.5855 293.727 17.1695 293.727 19.2495V33.9375H287.007V7.3455H293.727V10.5615C294.591 9.4415 295.695 8.5615 297.039 7.9215C298.415 7.2815 299.919 6.9615 301.551 6.9615C303.631 6.9615 305.487 7.4095 307.119 8.3055C308.751 9.1695 310.015 10.4175 310.911 12.0495C311.775 10.5135 313.023 9.2815 314.655 8.3535C316.319 7.4255 318.111 6.9615 320.031 6.9615ZM344.024 11.1855C344.888 9.9695 346.072 8.9615 347.576 8.1615C349.112 7.3295 350.856 6.9135 352.808 6.9135C355.08 6.9135 357.128 7.4735 358.952 8.5935C360.808 9.7135 362.264 11.3135 363.32 13.3935C364.408 15.4415 364.952 17.8255 364.952 20.5455C364.952 23.2655 364.408 25.6815 363.32 27.7935C362.264 29.8735 360.808 31.4895 358.952 32.6415C357.128 33.7935 355.08 34.3695 352.808 34.3695C350.856 34.3695 349.128 33.9695 347.624 33.1695C346.152 32.3695 344.952 31.3615 344.024 30.1455V46.6095H337.304V7.3455H344.024V11.1855ZM358.088 20.5455C358.088 18.9455 357.752 17.5695 357.08 16.4175C356.44 15.2335 355.576 14.3375 354.488 13.7295C353.432 13.1215 352.28 12.8175 351.032 12.8175C349.816 12.8175 348.664 13.1375 347.576 13.7775C346.52 14.3855 345.656 15.2815 344.984 16.4655C344.344 17.6495 344.024 19.0415 344.024 20.6415C344.024 22.2415 344.344 23.6335 344.984 24.8175C345.656 26.0015 346.52 26.9135 347.576 27.5535C348.664 28.1615 349.816 28.4655 351.032 28.4655C352.28 28.4655 353.432 28.1455 354.488 27.5055C355.576 26.8655 356.44 25.9535 357.08 24.7695C357.752 23.5855 358.088 22.1775 358.088 20.5455ZM368.107 20.5455C368.107 17.8575 368.635 15.4735 369.691 13.3935C370.779 11.3135 372.235 9.7135 374.059 8.5935C375.915 7.4735 377.979 6.9135 380.251 6.9135C382.235 6.9135 383.963 7.3135 385.435 8.1135C386.939 8.9135 388.139 9.9215 389.035 11.1375V7.3455H395.803V33.9375H389.035V30.0495C388.171 31.2975 386.971 32.3375 385.435 33.1695C383.931 33.9695 382.187 34.3695 380.203 34.3695C377.963 34.3695 375.915 33.7935 374.059 32.6415C372.235 31.4895 370.779 29.8735 369.691 27.7935C368.635 25.6815 368.107 23.2655 368.107 20.5455ZM389.035 20.6415C389.035 19.0095 388.715 17.6175 388.075 16.4655C387.435 15.2815 386.571 14.3855 385.483 13.7775C384.395 13.1375 383.227 12.8175 381.979 12.8175C380.731 12.8175 379.579 13.1215 378.523 13.7295C377.467 14.3375 376.603 15.2335 375.931 16.4175C375.291 17.5695 374.971 18.9455 374.971 20.5455C374.971 22.1455 375.291 23.5535 375.931 24.7695C376.603 25.9535 377.467 26.8655 378.523 27.5055C379.611 28.1455 380.763 28.4655 381.979 28.4655C383.227 28.4655 384.395 28.1615 385.483 27.5535C386.571 26.9135 387.435 26.0175 388.075 24.8655C388.715 23.6815 389.035 22.2735 389.035 20.6415ZM417.102 6.9615C420.27 6.9615 422.83 7.9695 424.782 9.9855C426.734 11.9695 427.71 14.7535 427.71 18.3375V33.9375H420.99V19.2495C420.99 17.1375 420.462 15.5215 419.406 14.4015C418.35 13.2495 416.91 12.6735 415.086 12.6735C413.23 12.6735 411.758 13.2495 410.67 14.4015C409.614 15.5215 409.086 17.1375 409.086 19.2495V33.9375H402.366V7.3455H409.086V10.6575C409.982 9.5055 411.118 8.6095 412.494 7.9695C413.902 7.2975 415.438 6.9615 417.102 6.9615ZM459.541 7.3455L443.077 46.5135H435.925L441.685 33.2655L431.029 7.3455H438.565L445.429 25.9215L452.389 7.3455H459.541Z" fill="#25252D"/>
</svg>
