<svg width="24" height="24" viewBox="0 0 24 24" fill="none" xmlns="http://www.w3.org/2000/svg">
<g clip-path="url(#clip0_2_2362)">
<path d="M18.5071 16.1427C17.3572 16.1427 16.3212 16.6393 15.6021 17.4292L9.13469 13.4236C9.30736 12.9816 9.40312 12.5015 9.40312 11.9992C9.40312 11.4968 9.30736 11.0167 9.13469 10.5749L15.6021 6.56908C16.3212 7.35899 17.3572 7.85576 18.5071 7.85576C20.6732 7.85576 22.4354 6.09355 22.4354 3.92742C22.4354 1.76129 20.6732 -0.000732422 18.5071 -0.000732422C16.341 -0.000732422 14.5788 1.76147 14.5788 3.9276C14.5788 4.42986 14.6747 4.90996 14.8472 5.35198L8.37993 9.35759C7.66088 8.56767 6.62487 8.07091 5.47497 8.07091C3.30883 8.07091 1.54663 9.83329 1.54663 11.9992C1.54663 14.1654 3.30883 15.9276 5.47497 15.9276C6.62487 15.9276 7.66088 15.431 8.37993 14.6409L14.8472 18.6465C14.6747 19.0885 14.5788 19.5686 14.5788 20.0711C14.5788 22.237 16.341 23.9992 18.5071 23.9992C20.6732 23.9992 22.4354 22.237 22.4354 20.0711C22.4354 17.9049 20.6732 16.1427 18.5071 16.1427ZM16.0112 3.9276C16.0112 2.55139 17.1309 1.4317 18.5071 1.4317C19.8833 1.4317 21.003 2.55139 21.003 3.9276C21.003 5.30382 19.8833 6.42351 18.5071 6.42351C17.1309 6.42351 16.0112 5.30382 16.0112 3.9276ZM5.47497 14.4951C4.09857 14.4951 2.97888 13.3755 2.97888 11.9992C2.97888 10.623 4.09857 9.50334 5.47497 9.50334C6.85119 9.50334 7.97069 10.623 7.97069 11.9992C7.97069 13.3755 6.85119 14.4951 5.47497 14.4951ZM16.0112 20.0709C16.0112 18.6947 17.1309 17.575 18.5071 17.575C19.8833 17.575 21.003 18.6947 21.003 20.0709C21.003 21.4471 19.8833 22.5668 18.5071 22.5668C17.1309 22.5668 16.0112 21.4471 16.0112 20.0709Z" fill="#25252D"/>
</g>
<defs>
<clipPath id="clip0_2_2362">
<rect width="24" height="24" fill="white"/>
</clipPath>
</defs>
</svg>
