<svg width="24" height="24" viewBox="0 0 24 24" fill="none" xmlns="http://www.w3.org/2000/svg">
<path d="M17.9642 15.7973C16.9102 15.7973 15.9606 16.2525 15.3015 16.9766L9.3733 13.305C9.53157 12.8998 9.61935 12.4597 9.61935 11.9994C9.61935 11.5388 9.53157 11.0988 9.3733 10.6938L15.3015 7.02199C15.9606 7.74604 16.9102 8.20138 17.9642 8.20138C19.9497 8.20138 21.565 6.58612 21.565 4.60061C21.565 2.6151 19.9497 1 17.9642 1C15.9787 1 14.3634 2.61526 14.3634 4.60077C14.3634 5.06115 14.4514 5.50122 14.6095 5.90638L8.68148 9.57798C8.02238 8.85393 7.07276 8.39859 6.01874 8.39859C4.03323 8.39859 2.41797 10.014 2.41797 11.9994C2.41797 13.9849 4.03323 15.6001 6.01874 15.6001C7.07276 15.6001 8.02238 15.145 8.68148 14.4207L14.6095 18.0924C14.4514 18.4975 14.3634 18.9376 14.3634 19.3981C14.3634 21.3835 15.9787 22.9987 17.9642 22.9987C19.9497 22.9987 21.565 21.3835 21.565 19.3981C21.565 17.4126 19.9497 15.7973 17.9642 15.7973ZM15.6764 4.60077C15.6764 3.33931 16.7027 2.31299 17.9642 2.31299C19.2257 2.31299 20.252 3.33931 20.252 4.60077C20.252 5.86224 19.2257 6.88856 17.9642 6.88856C16.7027 6.88856 15.6764 5.86224 15.6764 4.60077ZM6.01874 14.2872C4.75711 14.2872 3.73079 13.2608 3.73079 11.9994C3.73079 10.7379 4.75711 9.71158 6.01874 9.71158C7.28021 9.71158 8.30636 10.7379 8.30636 11.9994C8.30636 13.2608 7.28021 14.2872 6.01874 14.2872ZM15.6764 19.398C15.6764 18.1365 16.7027 17.1102 17.9642 17.1102C19.2257 17.1102 20.252 18.1365 20.252 19.398C20.252 20.6594 19.2257 21.6857 17.9642 21.6857C16.7027 21.6857 15.6764 20.6594 15.6764 19.398Z" fill="#25252D" stroke="#25252D" stroke-width="0.3"/>
</svg>
