<svg width="664" height="56" viewBox="0 0 664 56" fill="none" xmlns="http://www.w3.org/2000/svg">
<line x1="0.5" y1="55.5" x2="663.5" y2="55.5" stroke="#E6EAEE" stroke-linecap="round" stroke-linejoin="round"/>
<path d="M1.12 13.8C1.12 11.6027 1.61067 9.64 2.592 7.912C3.59467 6.16267 4.94933 4.808 6.656 3.848C8.384 2.86667 10.3147 2.376 12.448 2.376C14.944 2.376 17.1307 3.016 19.008 4.296C20.8853 5.576 22.1973 7.34667 22.944 9.608H17.792C17.28 8.54133 16.5547 7.74133 15.616 7.208C14.6987 6.67467 13.632 6.408 12.416 6.408C11.1147 6.408 9.952 6.71733 8.928 7.336C7.92533 7.93333 7.136 8.78667 6.56 9.896C6.00533 11.0053 5.728 12.3067 5.728 13.8C5.728 15.272 6.00533 16.5733 6.56 17.704C7.136 18.8133 7.92533 19.6773 8.928 20.296C9.952 20.8933 11.1147 21.192 12.416 21.192C13.632 21.192 14.6987 20.9253 15.616 20.392C16.5547 19.8373 17.28 19.0267 17.792 17.96H22.944C22.1973 20.2427 20.8853 22.024 19.008 23.304C17.152 24.5627 14.9653 25.192 12.448 25.192C10.3147 25.192 8.384 24.712 6.656 23.752C4.94933 22.7707 3.59467 21.416 2.592 19.688C1.61067 17.96 1.12 15.9973 1.12 13.8ZM25.6185 16.072C25.6185 14.28 25.9705 12.6907 26.6745 11.304C27.3998 9.91733 28.3705 8.85067 29.5865 8.104C30.8238 7.35733 32.1998 6.984 33.7145 6.984C35.0372 6.984 36.1892 7.25067 37.1705 7.784C38.1732 8.31733 38.9732 8.98933 39.5705 9.8V7.272H44.0825V25H39.5705V22.408C38.9945 23.24 38.1945 23.9333 37.1705 24.488C36.1678 25.0213 35.0052 25.288 33.6825 25.288C32.1892 25.288 30.8238 24.904 29.5865 24.136C28.3705 23.368 27.3998 22.2907 26.6745 20.904C25.9705 19.496 25.6185 17.8853 25.6185 16.072ZM39.5705 16.136C39.5705 15.048 39.3572 14.12 38.9305 13.352C38.5038 12.5627 37.9278 11.9653 37.2025 11.56C36.4772 11.1333 35.6985 10.92 34.8665 10.92C34.0345 10.92 33.2665 11.1227 32.5625 11.528C31.8585 11.9333 31.2825 12.5307 30.8345 13.32C30.4078 14.088 30.1945 15.0053 30.1945 16.072C30.1945 17.1387 30.4078 18.0773 30.8345 18.888C31.2825 19.6773 31.8585 20.2853 32.5625 20.712C33.2878 21.1387 34.0558 21.352 34.8665 21.352C35.6985 21.352 36.4772 21.1493 37.2025 20.744C37.9278 20.3173 38.5038 19.72 38.9305 18.952C39.3572 18.1627 39.5705 17.224 39.5705 16.136ZM52.938 10.024C53.514 9.08533 54.2607 8.34933 55.178 7.816C56.1167 7.28267 57.1833 7.016 58.378 7.016V11.72H57.194C55.786 11.72 54.7193 12.0507 53.994 12.712C53.29 13.3733 52.938 14.5253 52.938 16.168V25H48.458V7.272H52.938V10.024Z" fill="#25252D"/>
<line x1="76.5" y1="3.5" x2="76.5" y2="24.5" stroke="#E6EAEE"/>
<path d="M95.344 18.224H99.024V20H93.104V8.832H95.344V18.224ZM101.584 10.08C101.189 10.08 100.858 9.95733 100.592 9.712C100.336 9.456 100.208 9.14133 100.208 8.768C100.208 8.39467 100.336 8.08533 100.592 7.84C100.858 7.584 101.189 7.456 101.584 7.456C101.978 7.456 102.304 7.584 102.56 7.84C102.826 8.08533 102.96 8.39467 102.96 8.768C102.96 9.14133 102.826 9.456 102.56 9.712C102.304 9.95733 101.978 10.08 101.584 10.08ZM102.688 11.136V20H100.448V11.136H102.688ZM109.813 11.008C110.869 11.008 111.722 11.344 112.373 12.016C113.024 12.6773 113.349 13.6053 113.349 14.8V20H111.109V15.104C111.109 14.4 110.933 13.8613 110.581 13.488C110.229 13.104 109.749 12.912 109.141 12.912C108.522 12.912 108.032 13.104 107.669 13.488C107.317 13.8613 107.141 14.4 107.141 15.104V20H104.901V11.136H107.141V12.24C107.44 11.856 107.818 11.5573 108.277 11.344C108.746 11.12 109.258 11.008 109.813 11.008ZM123.719 15.376C123.719 15.696 123.698 15.984 123.655 16.24H117.175C117.228 16.88 117.452 17.3813 117.847 17.744C118.242 18.1067 118.727 18.288 119.303 18.288C120.135 18.288 120.727 17.9307 121.079 17.216H123.495C123.239 18.0693 122.748 18.7733 122.023 19.328C121.298 19.872 120.407 20.144 119.351 20.144C118.498 20.144 117.73 19.9573 117.047 19.584C116.375 19.2 115.847 18.6613 115.463 17.968C115.09 17.2747 114.903 16.4747 114.903 15.568C114.903 14.6507 115.09 13.8453 115.463 13.152C115.836 12.4587 116.359 11.9253 117.031 11.552C117.703 11.1787 118.476 10.992 119.351 10.992C120.194 10.992 120.946 11.1733 121.607 11.536C122.279 11.8987 122.796 12.416 123.159 13.088C123.532 13.7493 123.719 14.512 123.719 15.376ZM121.399 14.736C121.388 14.16 121.18 13.7013 120.775 13.36C120.37 13.008 119.874 12.832 119.287 12.832C118.732 12.832 118.263 13.0027 117.879 13.344C117.506 13.6747 117.276 14.1387 117.191 14.736H121.399ZM124.778 15.536C124.778 14.64 124.954 13.8453 125.306 13.152C125.669 12.4587 126.154 11.9253 126.762 11.552C127.381 11.1787 128.069 10.992 128.826 10.992C129.487 10.992 130.063 11.1253 130.554 11.392C131.055 11.6587 131.455 11.9947 131.754 12.4V11.136H134.01V20H131.754V18.704C131.466 19.12 131.066 19.4667 130.554 19.744C130.053 20.0107 129.471 20.144 128.81 20.144C128.063 20.144 127.381 19.952 126.762 19.568C126.154 19.184 125.669 18.6453 125.306 17.952C124.954 17.248 124.778 16.4427 124.778 15.536ZM131.754 15.568C131.754 15.024 131.647 14.56 131.434 14.176C131.221 13.7813 130.933 13.4827 130.57 13.28C130.207 13.0667 129.818 12.96 129.402 12.96C128.986 12.96 128.602 13.0613 128.25 13.264C127.898 13.4667 127.61 13.7653 127.386 14.16C127.173 14.544 127.066 15.0027 127.066 15.536C127.066 16.0693 127.173 16.5387 127.386 16.944C127.61 17.3387 127.898 17.6427 128.25 17.856C128.613 18.0693 128.997 18.176 129.402 18.176C129.818 18.176 130.207 18.0747 130.57 17.872C130.933 17.6587 131.221 17.36 131.434 16.976C131.647 16.5813 131.754 16.112 131.754 15.568ZM138.438 12.512C138.726 12.0427 139.099 11.6747 139.558 11.408C140.027 11.1413 140.56 11.008 141.158 11.008V13.36H140.566C139.862 13.36 139.328 13.5253 138.966 13.856C138.614 14.1867 138.438 14.7627 138.438 15.584V20H136.198V11.136H138.438V12.512Z" fill="#25252D"/>
</svg>
