<svg width="664" height="57" viewBox="0 0 664 57" fill="none" xmlns="http://www.w3.org/2000/svg">
<line x1="0.5" y1="55.5879" x2="663.5" y2="55.5879" stroke="#E6EAEE" stroke-linecap="round" stroke-linejoin="round"/>
<path d="M22.272 2.75189L14.08 25.0879H8.64L0.448 2.75189H5.248L11.392 20.5119L17.504 2.75189H22.272ZM27.23 5.24789C26.4407 5.24789 25.7793 5.00256 25.246 4.51189C24.734 3.99989 24.478 3.37056 24.478 2.62389C24.478 1.87722 24.734 1.25856 25.246 0.767889C25.7793 0.255889 26.4407 -0.000110626 27.23 -0.000110626C28.0193 -0.000110626 28.67 0.255889 29.182 0.767889C29.7153 1.25856 29.982 1.87722 29.982 2.62389C29.982 3.37056 29.7153 3.99989 29.182 4.51189C28.67 5.00256 28.0193 5.24789 27.23 5.24789ZM29.438 7.35989V25.0879H24.958V7.35989H29.438ZM32.7122 16.1599C32.7122 14.3679 33.0642 12.7786 33.7682 11.3919C34.4936 10.0052 35.4749 8.93856 36.7123 8.19189C37.9496 7.44522 39.3256 7.07189 40.8403 7.07189C41.9923 7.07189 43.0909 7.32789 44.1363 7.83989C45.1816 8.33056 46.0136 8.99189 46.6323 9.82389V1.40789H51.1763V25.0879H46.6323V22.4639C46.0776 23.3386 45.2989 24.0426 44.2963 24.5759C43.2936 25.1092 42.1309 25.3759 40.8083 25.3759C39.3149 25.3759 37.9496 24.9919 36.7123 24.2239C35.4749 23.4559 34.4936 22.3786 33.7682 20.9919C33.0642 19.5839 32.7122 17.9732 32.7122 16.1599ZM46.6643 16.2239C46.6643 15.1359 46.4509 14.2079 46.0243 13.4399C45.5976 12.6506 45.0216 12.0532 44.2963 11.6479C43.5709 11.2212 42.7923 11.0079 41.9603 11.0079C41.1283 11.0079 40.3603 11.2106 39.6562 11.6159C38.9523 12.0212 38.3763 12.6186 37.9283 13.4079C37.5016 14.1759 37.2883 15.0932 37.2883 16.1599C37.2883 17.2266 37.5016 18.1652 37.9283 18.9759C38.3763 19.7652 38.9523 20.3732 39.6562 20.7999C40.3816 21.2266 41.1496 21.4399 41.9603 21.4399C42.7923 21.4399 43.5709 21.2372 44.2963 20.8319C45.0216 20.4052 45.5976 19.8079 46.0243 19.0399C46.4509 18.2506 46.6643 17.3119 46.6643 16.2239ZM72.0318 15.8399C72.0318 16.4799 71.9891 17.0559 71.9038 17.5679H58.9438C59.0504 18.8479 59.4984 19.8506 60.2878 20.5759C61.0771 21.3012 62.0478 21.6639 63.1998 21.6639C64.8638 21.6639 66.0478 20.9492 66.7518 19.5199H71.5838C71.0718 21.2266 70.0904 22.6346 68.6398 23.7439C67.1891 24.8319 65.4078 25.3759 63.2958 25.3759C61.5891 25.3759 60.0531 25.0026 58.6878 24.2559C57.3438 23.4879 56.2878 22.4106 55.5198 21.0239C54.7731 19.6372 54.3997 18.0372 54.3997 16.2239C54.3997 14.3892 54.7731 12.7786 55.5198 11.3919C56.2664 10.0052 57.3118 8.93856 58.6558 8.19189C59.9998 7.44522 61.5464 7.07189 63.2958 7.07189C64.9811 7.07189 66.4851 7.43456 67.8078 8.15989C69.1518 8.88522 70.1864 9.91989 70.9118 11.2639C71.6584 12.5866 72.0318 14.1119 72.0318 15.8399ZM67.3918 14.5599C67.3704 13.4079 66.9544 12.4906 66.1438 11.8079C65.3331 11.1039 64.3411 10.7519 63.1678 10.7519C62.0584 10.7519 61.1198 11.0932 60.3518 11.7759C59.6051 12.4372 59.1464 13.3652 58.9758 14.5599H67.3918ZM83.1738 25.3759C81.4671 25.3759 79.9311 25.0026 78.5658 24.2559C77.2004 23.4879 76.1231 22.4106 75.3338 21.0239C74.5658 19.6372 74.1818 18.0372 74.1818 16.2239C74.1818 14.4106 74.5764 12.8106 75.3658 11.4239C76.1764 10.0372 77.2751 8.97056 78.6618 8.22389C80.0484 7.45589 81.5951 7.07189 83.3018 7.07189C85.0084 7.07189 86.5551 7.45589 87.9418 8.22389C89.3284 8.97056 90.4164 10.0372 91.2058 11.4239C92.0164 12.8106 92.4218 14.4106 92.4218 16.2239C92.4218 18.0372 92.0058 19.6372 91.1737 21.0239C90.3631 22.4106 89.2538 23.4879 87.8458 24.2559C86.4591 25.0026 84.9018 25.3759 83.1738 25.3759ZM83.1738 21.4719C83.9844 21.4719 84.7418 21.2799 85.4458 20.8959C86.1711 20.4906 86.7471 19.8932 87.1738 19.1039C87.6004 18.3146 87.8138 17.3546 87.8138 16.2239C87.8138 14.5386 87.3658 13.2479 86.4698 12.3519C85.5951 11.4346 84.5178 10.9759 83.2378 10.9759C81.9578 10.9759 80.8804 11.4346 80.0058 12.3519C79.1524 13.2479 78.7258 14.5386 78.7258 16.2239C78.7258 17.9092 79.1418 19.2106 79.9738 20.1279C80.8271 21.0239 81.8938 21.4719 83.1738 21.4719ZM100.604 20.3839L96.86 29.3759H93.98L96.06 20.3839H100.604ZM125.154 20.8319H116.258L114.786 25.0879H110.082L118.114 2.71989H123.33L131.362 25.0879H126.626L125.154 20.8319ZM123.938 17.2479L120.706 7.90389L117.474 17.2479H123.938ZM151.1 7.35989V25.0879H146.588V22.8479C146.012 23.6159 145.255 24.2239 144.316 24.6719C143.399 25.0986 142.396 25.3119 141.308 25.3119C139.922 25.3119 138.695 25.0239 137.628 24.4479C136.562 23.8506 135.719 22.9866 135.1 21.8559C134.503 20.7039 134.204 19.3386 134.204 17.7599V7.35989H138.684V17.1199C138.684 18.5279 139.036 19.6159 139.74 20.3839C140.444 21.1306 141.404 21.5039 142.62 21.5039C143.858 21.5039 144.828 21.1306 145.532 20.3839C146.236 19.6159 146.588 18.5279 146.588 17.1199V7.35989H151.1ZM154.368 16.1599C154.368 14.3679 154.72 12.7786 155.424 11.3919C156.15 10.0052 157.131 8.93856 158.369 8.19189C159.606 7.44522 160.982 7.07189 162.497 7.07189C163.649 7.07189 164.747 7.32789 165.793 7.83989C166.838 8.33056 167.67 8.99189 168.289 9.82389V1.40789H172.833V25.0879H168.289V22.4639C167.734 23.3386 166.955 24.0426 165.953 24.5759C164.95 25.1092 163.787 25.3759 162.465 25.3759C160.971 25.3759 159.606 24.9919 158.369 24.2239C157.131 23.4559 156.15 22.3786 155.424 20.9919C154.72 19.5839 154.368 17.9732 154.368 16.1599ZM168.321 16.2239C168.321 15.1359 168.107 14.2079 167.681 13.4399C167.254 12.6506 166.678 12.0532 165.953 11.6479C165.227 11.2212 164.449 11.0079 163.617 11.0079C162.785 11.0079 162.017 11.2106 161.312 11.6159C160.609 12.0212 160.033 12.6186 159.585 13.4079C159.158 14.1759 158.945 15.0932 158.945 16.1599C158.945 17.2266 159.158 18.1652 159.585 18.9759C160.033 19.7652 160.609 20.3732 161.312 20.7999C162.038 21.2266 162.806 21.4399 163.617 21.4399C164.449 21.4399 165.227 21.2372 165.953 20.8319C166.678 20.4052 167.254 19.8079 167.681 19.0399C168.107 18.2506 168.321 17.3119 168.321 16.2239ZM179.48 5.24789C178.691 5.24789 178.029 5.00256 177.496 4.51189C176.984 3.99989 176.728 3.37056 176.728 2.62389C176.728 1.87722 176.984 1.25856 177.496 0.767889C178.029 0.255889 178.691 -0.000110626 179.48 -0.000110626C180.269 -0.000110626 180.92 0.255889 181.432 0.767889C181.965 1.25856 182.232 1.87722 182.232 2.62389C182.232 3.37056 181.965 3.99989 181.432 4.51189C180.92 5.00256 180.269 5.24789 179.48 5.24789ZM181.688 7.35989V25.0879H177.208V7.35989H181.688ZM193.986 25.3759C192.28 25.3759 190.744 25.0026 189.378 24.2559C188.013 23.4879 186.936 22.4106 186.146 21.0239C185.378 19.6372 184.994 18.0372 184.994 16.2239C184.994 14.4106 185.389 12.8106 186.178 11.4239C186.989 10.0372 188.088 8.97056 189.474 8.22389C190.861 7.45589 192.408 7.07189 194.114 7.07189C195.821 7.07189 197.368 7.45589 198.754 8.22389C200.141 8.97056 201.229 10.0372 202.018 11.4239C202.829 12.8106 203.234 14.4106 203.234 16.2239C203.234 18.0372 202.818 19.6372 201.986 21.0239C201.176 22.4106 200.066 23.4879 198.658 24.2559C197.272 25.0026 195.714 25.3759 193.986 25.3759ZM193.986 21.4719C194.797 21.4719 195.554 21.2799 196.258 20.8959C196.984 20.4906 197.56 19.8932 197.986 19.1039C198.413 18.3146 198.626 17.3546 198.626 16.2239C198.626 14.5386 198.178 13.2479 197.282 12.3519C196.408 11.4346 195.33 10.9759 194.05 10.9759C192.77 10.9759 191.693 11.4346 190.818 12.3519C189.965 13.2479 189.538 14.5386 189.538 16.2239C189.538 17.9092 189.954 19.2106 190.786 20.1279C191.64 21.0239 192.706 21.4719 193.986 21.4719ZM211.417 20.3839L207.673 29.3759H204.793L206.873 20.3839H211.417ZM226.751 2.75189V25.0879H222.271V2.75189H226.751ZM253.193 7.10389C255.369 7.10389 257.118 7.77589 258.441 9.11989C259.785 10.4426 260.457 12.2986 260.457 14.6879V25.0879H255.977V15.2959C255.977 13.9092 255.625 12.8532 254.921 12.1279C254.217 11.3812 253.257 11.0079 252.041 11.0079C250.825 11.0079 249.854 11.3812 249.129 12.1279C248.425 12.8532 248.073 13.9092 248.073 15.2959V25.0879H243.593V15.2959C243.593 13.9092 243.241 12.8532 242.537 12.1279C241.833 11.3812 240.873 11.0079 239.657 11.0079C238.419 11.0079 237.438 11.3812 236.713 12.1279C236.009 12.8532 235.657 13.9092 235.657 15.2959V25.0879H231.177V7.35989H235.657V9.50389C236.233 8.75722 236.969 8.17056 237.865 7.74389C238.782 7.31722 239.785 7.10389 240.873 7.10389C242.259 7.10389 243.497 7.40256 244.585 7.99989C245.673 8.57589 246.515 9.40789 247.113 10.4959C247.689 9.47189 248.521 8.65056 249.609 8.03189C250.718 7.41322 251.913 7.10389 253.193 7.10389ZM263.556 16.1599C263.556 14.3679 263.908 12.7786 264.612 11.3919C265.337 10.0052 266.308 8.93856 267.524 8.19189C268.761 7.44522 270.137 7.07189 271.652 7.07189C272.975 7.07189 274.127 7.33856 275.108 7.87189C276.111 8.40522 276.911 9.07722 277.508 9.88789V7.35989H282.02V25.0879H277.508V22.4959C276.932 23.3279 276.132 24.0212 275.108 24.5759C274.105 25.1092 272.943 25.3759 271.62 25.3759C270.127 25.3759 268.761 24.9919 267.524 24.2239C266.308 23.4559 265.337 22.3786 264.612 20.9919C263.908 19.5839 263.556 17.9732 263.556 16.1599ZM277.508 16.2239C277.508 15.1359 277.295 14.2079 276.868 13.4399C276.441 12.6506 275.865 12.0532 275.14 11.6479C274.415 11.2212 273.636 11.0079 272.804 11.0079C271.972 11.0079 271.204 11.2106 270.5 11.6159C269.796 12.0212 269.22 12.6186 268.772 13.4079C268.345 14.1759 268.132 15.0932 268.132 16.1599C268.132 17.2266 268.345 18.1652 268.772 18.9759C269.22 19.7652 269.796 20.3732 270.5 20.7999C271.225 21.2266 271.993 21.4399 272.804 21.4399C273.636 21.4399 274.415 21.2372 275.14 20.8319C275.865 20.4052 276.441 19.8079 276.868 19.0399C277.295 18.2506 277.508 17.3119 277.508 16.2239ZM293.34 7.07189C294.662 7.07189 295.825 7.33856 296.828 7.87189C297.83 8.38389 298.62 9.05589 299.196 9.88789V7.35989H303.708V25.2159C303.708 26.8586 303.377 28.3199 302.716 29.5999C302.054 30.9012 301.062 31.9252 299.74 32.6719C298.417 33.4399 296.817 33.8239 294.94 33.8239C292.422 33.8239 290.353 33.2372 288.732 32.0639C287.132 30.8906 286.225 29.2906 286.012 27.2639H290.46C290.694 28.0746 291.196 28.7146 291.964 29.1839C292.753 29.6746 293.702 29.9199 294.812 29.9199C296.113 29.9199 297.169 29.5252 297.98 28.7359C298.79 27.9679 299.196 26.7946 299.196 25.2159V22.4639C298.62 23.2959 297.82 23.9892 296.796 24.5439C295.793 25.0986 294.641 25.3759 293.34 25.3759C291.846 25.3759 290.481 24.9919 289.244 24.2239C288.006 23.4559 287.025 22.3786 286.299 20.9919C285.595 19.5839 285.243 17.9732 285.243 16.1599C285.243 14.3679 285.595 12.7786 286.299 11.3919C287.025 10.0052 287.996 8.93856 289.212 8.19189C290.449 7.44522 291.825 7.07189 293.34 7.07189ZM299.196 16.2239C299.196 15.1359 298.982 14.2079 298.556 13.4399C298.129 12.6506 297.553 12.0532 296.828 11.6479C296.102 11.2212 295.324 11.0079 294.492 11.0079C293.66 11.0079 292.892 11.2106 292.188 11.6159C291.484 12.0212 290.908 12.6186 290.46 13.4079C290.033 14.1759 289.82 15.0932 289.82 16.1599C289.82 17.2266 290.033 18.1652 290.46 18.9759C290.908 19.7652 291.484 20.3732 292.188 20.7999C292.913 21.2266 293.681 21.4399 294.492 21.4399C295.324 21.4399 296.102 21.2372 296.828 20.8319C297.553 20.4052 298.129 19.8079 298.556 19.0399C298.982 18.2506 299.196 17.3119 299.196 16.2239ZM324.563 15.8399C324.563 16.4799 324.52 17.0559 324.435 17.5679H311.475C311.582 18.8479 312.03 19.8506 312.819 20.5759C313.608 21.3012 314.579 21.6639 315.731 21.6639C317.395 21.6639 318.579 20.9492 319.283 19.5199H324.115C323.603 21.2266 322.622 22.6346 321.171 23.7439C319.72 24.8319 317.939 25.3759 315.827 25.3759C314.12 25.3759 312.584 25.0026 311.219 24.2559C309.875 23.4879 308.819 22.4106 308.051 21.0239C307.304 19.6372 306.931 18.0372 306.931 16.2239C306.931 14.3892 307.304 12.7786 308.051 11.3919C308.798 10.0052 309.843 8.93856 311.187 8.19189C312.531 7.44522 314.078 7.07189 315.827 7.07189C317.512 7.07189 319.016 7.43456 320.339 8.15989C321.683 8.88522 322.718 9.91989 323.443 11.2639C324.19 12.5866 324.563 14.1119 324.563 15.8399ZM319.923 14.5599C319.902 13.4079 319.486 12.4906 318.675 11.8079C317.864 11.1039 316.872 10.7519 315.699 10.7519C314.59 10.7519 313.651 11.0932 312.883 11.7759C312.136 12.4372 311.678 13.3652 311.507 14.5599H319.923Z" fill="#25252D"/>
<line x1="342.5" y1="3.58789" x2="342.5" y2="24.5879" stroke="#E6EAEE"/>
<path d="M361.344 18.3119H365.024V20.0879H359.104V8.91989H361.344V18.3119ZM367.584 10.1679C367.189 10.1679 366.858 10.0452 366.592 9.79989C366.336 9.54389 366.208 9.22922 366.208 8.85589C366.208 8.48256 366.336 8.17322 366.592 7.92789C366.858 7.67189 367.189 7.54389 367.584 7.54389C367.978 7.54389 368.304 7.67189 368.56 7.92789C368.826 8.17322 368.96 8.48256 368.96 8.85589C368.96 9.22922 368.826 9.54389 368.56 9.79989C368.304 10.0452 367.978 10.1679 367.584 10.1679ZM368.688 11.2239V20.0879H366.448V11.2239H368.688ZM375.813 11.0959C376.869 11.0959 377.722 11.4319 378.373 12.1039C379.024 12.7652 379.349 13.6932 379.349 14.8879V20.0879H377.109V15.1919C377.109 14.4879 376.933 13.9492 376.581 13.5759C376.229 13.1919 375.749 12.9999 375.141 12.9999C374.522 12.9999 374.032 13.1919 373.669 13.5759C373.317 13.9492 373.141 14.4879 373.141 15.1919V20.0879H370.901V11.2239H373.141V12.3279C373.44 11.9439 373.818 11.6452 374.277 11.4319C374.746 11.2079 375.258 11.0959 375.813 11.0959ZM389.719 15.4639C389.719 15.7839 389.698 16.0719 389.655 16.3279H383.175C383.228 16.9679 383.452 17.4692 383.847 17.8319C384.242 18.1946 384.727 18.3759 385.303 18.3759C386.135 18.3759 386.727 18.0186 387.079 17.3039H389.495C389.239 18.1572 388.748 18.8612 388.023 19.4159C387.298 19.9599 386.407 20.2319 385.351 20.2319C384.498 20.2319 383.73 20.0452 383.047 19.6719C382.375 19.2879 381.847 18.7492 381.463 18.0559C381.09 17.3626 380.903 16.5626 380.903 15.6559C380.903 14.7386 381.09 13.9332 381.463 13.2399C381.836 12.5466 382.359 12.0132 383.031 11.6399C383.703 11.2666 384.476 11.0799 385.351 11.0799C386.194 11.0799 386.946 11.2612 387.607 11.6239C388.279 11.9866 388.796 12.5039 389.159 13.1759C389.532 13.8372 389.719 14.5999 389.719 15.4639ZM387.399 14.8239C387.388 14.2479 387.18 13.7892 386.775 13.4479C386.37 13.0959 385.874 12.9199 385.287 12.9199C384.732 12.9199 384.263 13.0906 383.879 13.4319C383.506 13.7626 383.276 14.2266 383.191 14.8239H387.399ZM390.778 15.6239C390.778 14.7279 390.954 13.9332 391.306 13.2399C391.669 12.5466 392.154 12.0132 392.762 11.6399C393.381 11.2666 394.069 11.0799 394.826 11.0799C395.487 11.0799 396.063 11.2132 396.554 11.4799C397.055 11.7466 397.455 12.0826 397.754 12.4879V11.2239H400.01V20.0879H397.754V18.7919C397.466 19.2079 397.066 19.5546 396.554 19.8319C396.053 20.0986 395.471 20.2319 394.81 20.2319C394.063 20.2319 393.381 20.0399 392.762 19.6559C392.154 19.2719 391.669 18.7332 391.306 18.0399C390.954 17.3359 390.778 16.5306 390.778 15.6239ZM397.754 15.6559C397.754 15.1119 397.647 14.6479 397.434 14.2639C397.221 13.8692 396.933 13.5706 396.57 13.3679C396.207 13.1546 395.818 13.0479 395.402 13.0479C394.986 13.0479 394.602 13.1492 394.25 13.3519C393.898 13.5546 393.61 13.8532 393.386 14.2479C393.173 14.6319 393.066 15.0906 393.066 15.6239C393.066 16.1572 393.173 16.6266 393.386 17.0319C393.61 17.4266 393.898 17.7306 394.25 17.9439C394.613 18.1572 394.997 18.2639 395.402 18.2639C395.818 18.2639 396.207 18.1626 396.57 17.9599C396.933 17.7466 397.221 17.4479 397.434 17.0639C397.647 16.6692 397.754 16.1999 397.754 15.6559ZM404.438 12.5999C404.726 12.1306 405.099 11.7626 405.558 11.4959C406.027 11.2292 406.56 11.0959 407.158 11.0959V13.4479H406.566C405.862 13.4479 405.328 13.6132 404.966 13.9439C404.614 14.2746 404.438 14.8506 404.438 15.6719V20.0879H402.198V11.2239H404.438V12.5999Z" fill="#25252D"/>
</svg>
