<svg width="664" height="57" viewBox="0 0 664 57" fill="none" xmlns="http://www.w3.org/2000/svg">
<line x1="0.5" y1="55.5879" x2="663.5" y2="55.5879" stroke="#E6EAEE" stroke-linecap="round" stroke-linejoin="round"/>
<path d="M9.92 25.3119C8.36267 25.3119 6.95467 25.0452 5.696 24.5119C4.45867 23.9786 3.47733 23.2106 2.752 22.2079C2.02667 21.2052 1.65333 20.0212 1.632 18.6559H6.432C6.496 19.5732 6.816 20.2986 7.392 20.8319C7.98933 21.3652 8.8 21.6319 9.824 21.6319C10.8693 21.6319 11.6907 21.3866 12.288 20.8959C12.8853 20.3839 13.184 19.7226 13.184 18.9119C13.184 18.2506 12.9813 17.7066 12.576 17.2799C12.1707 16.8532 11.6587 16.5226 11.04 16.2879C10.4427 16.0319 9.61067 15.7546 8.544 15.4559C7.09333 15.0292 5.90933 14.6132 4.992 14.2079C4.096 13.7812 3.31733 13.1519 2.656 12.3199C2.016 11.4666 1.696 10.3359 1.696 8.92789C1.696 7.60522 2.02667 6.45322 2.688 5.47189C3.34933 4.49056 4.27733 3.74389 5.472 3.23189C6.66667 2.69856 8.032 2.43189 9.568 2.43189C11.872 2.43189 13.7387 2.99722 15.168 4.12789C16.6187 5.23722 17.4187 6.79456 17.568 8.79989H12.64C12.5973 8.03189 12.2667 7.40256 11.648 6.91189C11.0507 6.39989 10.2507 6.14389 9.248 6.14389C8.37333 6.14389 7.66933 6.36789 7.136 6.81589C6.624 7.26389 6.368 7.91456 6.368 8.76789C6.368 9.36522 6.56 9.86656 6.944 10.2719C7.34933 10.6559 7.84 10.9759 8.416 11.2319C9.01333 11.4666 9.84533 11.7439 10.912 12.0639C12.3627 12.4906 13.5467 12.9172 14.464 13.3439C15.3813 13.7706 16.1707 14.4106 16.832 15.2639C17.4933 16.1172 17.824 17.2372 17.824 18.6239C17.824 19.8186 17.5147 20.9279 16.896 21.9519C16.2773 22.9759 15.3707 23.7972 14.176 24.4159C12.9813 25.0132 11.5627 25.3119 9.92 25.3119ZM20.556 16.2239C20.556 14.3892 20.9293 12.7892 21.676 11.4239C22.4227 10.0372 23.4573 8.97056 24.78 8.22389C26.1027 7.45589 27.6173 7.07189 29.324 7.07189C31.5213 7.07189 33.3347 7.62656 34.764 8.73589C36.2147 9.82389 37.1853 11.3599 37.676 13.3439H32.844C32.588 12.5759 32.1507 11.9786 31.532 11.5519C30.9347 11.1039 30.188 10.8799 29.292 10.8799C28.012 10.8799 26.9987 11.3492 26.252 12.2879C25.5053 13.2052 25.132 14.5172 25.132 16.2239C25.132 17.9092 25.5053 19.2212 26.252 20.1599C26.9987 21.0772 28.012 21.5359 29.292 21.5359C31.1053 21.5359 32.2893 20.7252 32.844 19.1039H37.676C37.1853 21.0239 36.2147 22.5492 34.764 23.6799C33.3133 24.8106 31.5 25.3759 29.324 25.3759C27.6173 25.3759 26.1027 25.0026 24.78 24.2559C23.4573 23.4879 22.4227 22.4212 21.676 21.0559C20.9293 19.6692 20.556 18.0586 20.556 16.2239ZM50.942 7.10389C52.286 7.10389 53.4807 7.40256 54.526 7.99989C55.5713 8.57589 56.382 9.43989 56.958 10.5919C57.5553 11.7226 57.854 13.0879 57.854 14.6879V25.0879H53.374V15.2959C53.374 13.8879 53.022 12.8106 52.318 12.0639C51.614 11.2959 50.654 10.9119 49.438 10.9119C48.2007 10.9119 47.2193 11.2959 46.494 12.0639C45.79 12.8106 45.438 13.8879 45.438 15.2959V25.0879H40.958V1.40789H45.438V9.56789C46.014 8.79989 46.782 8.20256 47.742 7.77589C48.702 7.32789 49.7687 7.10389 50.942 7.10389ZM69.9863 25.3759C68.2796 25.3759 66.7436 25.0026 65.3783 24.2559C64.0129 23.4879 62.9356 22.4106 62.1463 21.0239C61.3783 19.6372 60.9943 18.0372 60.9943 16.2239C60.9943 14.4106 61.3889 12.8106 62.1783 11.4239C62.9889 10.0372 64.0876 8.97056 65.4743 8.22389C66.8609 7.45589 68.4076 7.07189 70.1143 7.07189C71.8209 7.07189 73.3676 7.45589 74.7543 8.22389C76.1409 8.97056 77.2289 10.0372 78.0183 11.4239C78.8289 12.8106 79.2343 14.4106 79.2343 16.2239C79.2343 18.0372 78.8183 19.6372 77.9862 21.0239C77.1756 22.4106 76.0663 23.4879 74.6583 24.2559C73.2716 25.0026 71.7143 25.3759 69.9863 25.3759ZM69.9863 21.4719C70.7969 21.4719 71.5543 21.2799 72.2583 20.8959C72.9836 20.4906 73.5596 19.8932 73.9863 19.1039C74.4129 18.3146 74.6263 17.3546 74.6263 16.2239C74.6263 14.5386 74.1783 13.2479 73.2823 12.3519C72.4076 11.4346 71.3303 10.9759 70.0503 10.9759C68.7703 10.9759 67.6929 11.4346 66.8183 12.3519C65.9649 13.2479 65.5383 14.5386 65.5383 16.2239C65.5383 17.9092 65.9543 19.2106 66.7863 20.1279C67.6396 21.0239 68.7063 21.4719 69.9863 21.4719ZM90.3925 25.3759C88.6858 25.3759 87.1498 25.0026 85.7845 24.2559C84.4192 23.4879 83.3418 22.4106 82.5525 21.0239C81.7845 19.6372 81.4005 18.0372 81.4005 16.2239C81.4005 14.4106 81.7952 12.8106 82.5845 11.4239C83.3952 10.0372 84.4938 8.97056 85.8805 8.22389C87.2672 7.45589 88.8138 7.07189 90.5205 7.07189C92.2272 7.07189 93.7738 7.45589 95.1605 8.22389C96.5472 8.97056 97.6352 10.0372 98.4245 11.4239C99.2352 12.8106 99.6405 14.4106 99.6405 16.2239C99.6405 18.0372 99.2245 19.6372 98.3925 21.0239C97.5818 22.4106 96.4725 23.4879 95.0645 24.2559C93.6778 25.0026 92.1205 25.3759 90.3925 25.3759ZM90.3925 21.4719C91.2032 21.4719 91.9605 21.2799 92.6645 20.8959C93.3898 20.4906 93.9658 19.8932 94.3925 19.1039C94.8192 18.3146 95.0325 17.3546 95.0325 16.2239C95.0325 14.5386 94.5845 13.2479 93.6885 12.3519C92.8138 11.4346 91.7365 10.9759 90.4565 10.9759C89.1765 10.9759 88.0992 11.4346 87.2245 12.3519C86.3712 13.2479 85.9445 14.5386 85.9445 16.2239C85.9445 17.9092 86.3605 19.2106 87.1925 20.1279C88.0458 21.0239 89.1125 21.4719 90.3925 21.4719ZM107.407 1.40789V25.0879H102.927V1.40789H107.407ZM116.729 20.3839L112.985 29.3759H110.105L112.185 20.3839H116.729ZM132.063 21.5359H139.423V25.0879H127.583V2.75189H132.063V21.5359ZM158.751 15.8399C158.751 16.4799 158.708 17.0559 158.623 17.5679H145.663C145.769 18.8479 146.217 19.8506 147.007 20.5759C147.796 21.3012 148.767 21.6639 149.919 21.6639C151.583 21.6639 152.767 20.9492 153.471 19.5199H158.303C157.791 21.2266 156.809 22.6346 155.359 23.7439C153.908 24.8319 152.127 25.3759 150.015 25.3759C148.308 25.3759 146.772 25.0026 145.407 24.2559C144.063 23.4879 143.007 22.4106 142.239 21.0239C141.492 19.6372 141.118 18.0372 141.118 16.2239C141.118 14.3892 141.492 12.7786 142.239 11.3919C142.985 10.0052 144.031 8.93856 145.375 8.19189C146.719 7.44522 148.265 7.07189 150.015 7.07189C151.7 7.07189 153.204 7.43456 154.527 8.15989C155.871 8.88522 156.905 9.91989 157.631 11.2639C158.377 12.5866 158.751 14.1119 158.751 15.8399ZM154.111 14.5599C154.089 13.4079 153.673 12.4906 152.863 11.8079C152.052 11.1039 151.06 10.7519 149.887 10.7519C148.777 10.7519 147.839 11.0932 147.071 11.7759C146.324 12.4372 145.865 13.3652 145.695 14.5599H154.111ZM160.868 16.1599C160.868 14.3679 161.22 12.7786 161.924 11.3919C162.65 10.0052 163.621 8.93856 164.837 8.19189C166.074 7.44522 167.45 7.07189 168.965 7.07189C170.287 7.07189 171.439 7.33856 172.421 7.87189C173.423 8.40522 174.223 9.07722 174.821 9.88789V7.35989H179.333V25.0879H174.821V22.4959C174.245 23.3279 173.445 24.0212 172.421 24.5759C171.418 25.1092 170.255 25.3759 168.933 25.3759C167.439 25.3759 166.074 24.9919 164.837 24.2239C163.621 23.4559 162.65 22.3786 161.924 20.9919C161.22 19.5839 160.868 17.9732 160.868 16.1599ZM174.821 16.2239C174.821 15.1359 174.607 14.2079 174.181 13.4399C173.754 12.6506 173.178 12.0532 172.453 11.6479C171.727 11.2212 170.949 11.0079 170.117 11.0079C169.285 11.0079 168.517 11.2106 167.812 11.6159C167.109 12.0212 166.533 12.6186 166.085 13.4079C165.658 14.1759 165.445 15.0932 165.445 16.1599C165.445 17.2266 165.658 18.1652 166.085 18.9759C166.533 19.7652 167.109 20.3732 167.812 20.7999C168.538 21.2266 169.306 21.4399 170.117 21.4399C170.949 21.4399 171.727 21.2372 172.453 20.8319C173.178 20.4052 173.754 19.8079 174.181 19.0399C174.607 18.2506 174.821 17.3119 174.821 16.2239ZM188.188 10.1119C188.764 9.17322 189.511 8.43722 190.428 7.90389C191.367 7.37056 192.433 7.10389 193.628 7.10389V11.8079H192.444C191.036 11.8079 189.969 12.1386 189.244 12.7999C188.54 13.4612 188.188 14.6132 188.188 16.2559V25.0879H183.708V7.35989H188.188V10.1119ZM206.47 7.10389C208.582 7.10389 210.288 7.77589 211.59 9.11989C212.891 10.4426 213.542 12.2986 213.542 14.6879V25.0879H209.062V15.2959C209.062 13.8879 208.71 12.8106 208.006 12.0639C207.302 11.2959 206.342 10.9119 205.126 10.9119C203.888 10.9119 202.907 11.2959 202.182 12.0639C201.478 12.8106 201.126 13.8879 201.126 15.2959V25.0879H196.646V7.35989H201.126V9.56789C201.723 8.79989 202.48 8.20256 203.398 7.77589C204.336 7.32789 205.36 7.10389 206.47 7.10389ZM220.074 5.24789C219.284 5.24789 218.623 5.00256 218.09 4.51189C217.578 3.99989 217.322 3.37056 217.322 2.62389C217.322 1.87722 217.578 1.25856 218.09 0.767889C218.623 0.255889 219.284 -0.000110626 220.074 -0.000110626C220.863 -0.000110626 221.514 0.255889 222.026 0.767889C222.559 1.25856 222.826 1.87722 222.826 2.62389C222.826 3.37056 222.559 3.99989 222.026 4.51189C221.514 5.00256 220.863 5.24789 220.074 5.24789ZM222.282 7.35989V25.0879H217.802V7.35989H222.282ZM236.532 7.10389C238.644 7.10389 240.351 7.77589 241.652 9.11989C242.953 10.4426 243.604 12.2986 243.604 14.6879V25.0879H239.124V15.2959C239.124 13.8879 238.772 12.8106 238.068 12.0639C237.364 11.2959 236.404 10.9119 235.188 10.9119C233.951 10.9119 232.969 11.2959 232.244 12.0639C231.54 12.8106 231.188 13.8879 231.188 15.2959V25.0879H226.708V7.35989H231.188V9.56789C231.785 8.79989 232.543 8.20256 233.46 7.77589C234.399 7.32789 235.423 7.10389 236.532 7.10389ZM254.808 7.07189C256.131 7.07189 257.294 7.33856 258.296 7.87189C259.299 8.38389 260.088 9.05589 260.664 9.88789V7.35989H265.176V25.2159C265.176 26.8586 264.846 28.3199 264.184 29.5999C263.523 30.9012 262.531 31.9252 261.208 32.6719C259.886 33.4399 258.286 33.8239 256.408 33.8239C253.891 33.8239 251.822 33.2372 250.2 32.0639C248.6 30.8906 247.694 29.2906 247.48 27.2639H251.928C252.163 28.0746 252.664 28.7146 253.432 29.1839C254.222 29.6746 255.171 29.9199 256.28 29.9199C257.582 29.9199 258.638 29.5252 259.448 28.7359C260.259 27.9679 260.664 26.7946 260.664 25.2159V22.4639C260.088 23.2959 259.288 23.9892 258.264 24.5439C257.262 25.0986 256.11 25.3759 254.808 25.3759C253.315 25.3759 251.95 24.9919 250.712 24.2239C249.475 23.4559 248.494 22.3786 247.768 20.9919C247.064 19.5839 246.712 17.9732 246.712 16.1599C246.712 14.3679 247.064 12.7786 247.768 11.3919C248.494 10.0052 249.464 8.93856 250.68 8.19189C251.918 7.44522 253.294 7.07189 254.808 7.07189ZM260.664 16.2239C260.664 15.1359 260.451 14.2079 260.024 13.4399C259.598 12.6506 259.022 12.0532 258.296 11.6479C257.571 11.2212 256.792 11.0079 255.96 11.0079C255.128 11.0079 254.36 11.2106 253.656 11.6159C252.952 12.0212 252.376 12.6186 251.928 13.4079C251.502 14.1759 251.288 15.0932 251.288 16.1599C251.288 17.2266 251.502 18.1652 251.928 18.9759C252.376 19.7652 252.952 20.3732 253.656 20.7999C254.382 21.2266 255.15 21.4399 255.96 21.4399C256.792 21.4399 257.571 21.2372 258.296 20.8319C259.022 20.4052 259.598 19.8079 260.024 19.0399C260.451 18.2506 260.664 17.3119 260.664 16.2239Z" fill="#25252D"/>
<line x1="284.5" y1="3.58789" x2="284.5" y2="24.5879" stroke="#E6EAEE"/>
<path d="M303.344 18.3119H307.024V20.0879H301.104V8.91989H303.344V18.3119ZM309.584 10.1679C309.189 10.1679 308.858 10.0452 308.592 9.79989C308.336 9.54389 308.208 9.22922 308.208 8.85589C308.208 8.48256 308.336 8.17322 308.592 7.92789C308.858 7.67189 309.189 7.54389 309.584 7.54389C309.978 7.54389 310.304 7.67189 310.56 7.92789C310.826 8.17322 310.96 8.48256 310.96 8.85589C310.96 9.22922 310.826 9.54389 310.56 9.79989C310.304 10.0452 309.978 10.1679 309.584 10.1679ZM310.688 11.2239V20.0879H308.448V11.2239H310.688ZM317.813 11.0959C318.869 11.0959 319.722 11.4319 320.373 12.1039C321.024 12.7652 321.349 13.6932 321.349 14.8879V20.0879H319.109V15.1919C319.109 14.4879 318.933 13.9492 318.581 13.5759C318.229 13.1919 317.749 12.9999 317.141 12.9999C316.522 12.9999 316.032 13.1919 315.669 13.5759C315.317 13.9492 315.141 14.4879 315.141 15.1919V20.0879H312.901V11.2239H315.141V12.3279C315.44 11.9439 315.818 11.6452 316.277 11.4319C316.746 11.2079 317.258 11.0959 317.813 11.0959ZM331.719 15.4639C331.719 15.7839 331.698 16.0719 331.655 16.3279H325.175C325.228 16.9679 325.452 17.4692 325.847 17.8319C326.242 18.1946 326.727 18.3759 327.303 18.3759C328.135 18.3759 328.727 18.0186 329.079 17.3039H331.495C331.239 18.1572 330.748 18.8612 330.023 19.4159C329.298 19.9599 328.407 20.2319 327.351 20.2319C326.498 20.2319 325.73 20.0452 325.047 19.6719C324.375 19.2879 323.847 18.7492 323.463 18.0559C323.09 17.3626 322.903 16.5626 322.903 15.6559C322.903 14.7386 323.09 13.9332 323.463 13.2399C323.836 12.5466 324.359 12.0132 325.031 11.6399C325.703 11.2666 326.476 11.0799 327.351 11.0799C328.194 11.0799 328.946 11.2612 329.607 11.6239C330.279 11.9866 330.796 12.5039 331.159 13.1759C331.532 13.8372 331.719 14.5999 331.719 15.4639ZM329.399 14.8239C329.388 14.2479 329.18 13.7892 328.775 13.4479C328.37 13.0959 327.874 12.9199 327.287 12.9199C326.732 12.9199 326.263 13.0906 325.879 13.4319C325.506 13.7626 325.276 14.2266 325.191 14.8239H329.399ZM332.778 15.6239C332.778 14.7279 332.954 13.9332 333.306 13.2399C333.669 12.5466 334.154 12.0132 334.762 11.6399C335.381 11.2666 336.069 11.0799 336.826 11.0799C337.487 11.0799 338.063 11.2132 338.554 11.4799C339.055 11.7466 339.455 12.0826 339.754 12.4879V11.2239H342.01V20.0879H339.754V18.7919C339.466 19.2079 339.066 19.5546 338.554 19.8319C338.053 20.0986 337.471 20.2319 336.81 20.2319C336.063 20.2319 335.381 20.0399 334.762 19.6559C334.154 19.2719 333.669 18.7332 333.306 18.0399C332.954 17.3359 332.778 16.5306 332.778 15.6239ZM339.754 15.6559C339.754 15.1119 339.647 14.6479 339.434 14.2639C339.221 13.8692 338.933 13.5706 338.57 13.3679C338.207 13.1546 337.818 13.0479 337.402 13.0479C336.986 13.0479 336.602 13.1492 336.25 13.3519C335.898 13.5546 335.61 13.8532 335.386 14.2479C335.173 14.6319 335.066 15.0906 335.066 15.6239C335.066 16.1572 335.173 16.6266 335.386 17.0319C335.61 17.4266 335.898 17.7306 336.25 17.9439C336.613 18.1572 336.997 18.2639 337.402 18.2639C337.818 18.2639 338.207 18.1626 338.57 17.9599C338.933 17.7466 339.221 17.4479 339.434 17.0639C339.647 16.6692 339.754 16.1999 339.754 15.6559ZM346.438 12.5999C346.726 12.1306 347.099 11.7626 347.558 11.4959C348.027 11.2292 348.56 11.0959 349.158 11.0959V13.4479H348.566C347.862 13.4479 347.328 13.6132 346.966 13.9439C346.614 14.2746 346.438 14.8506 346.438 15.6719V20.0879H344.198V11.2239H346.438V12.5999Z" fill="#25252D"/>
</svg>
