<svg width="24" height="24" viewBox="0 0 24 24" fill="none" xmlns="http://www.w3.org/2000/svg">
<path d="M9.02999 21.6917L11.36 19.7317C11.71 19.4317 12.29 19.4317 12.64 19.7317L14.97 21.6917C15.51 21.9617 16.17 21.6917 16.37 21.1117L16.81 19.7817C16.92 19.4617 16.81 18.9917 16.57 18.7517L14.3 16.4717C14.13 16.3117 14 15.9917 14 15.7617V12.9117C14 12.4917 14.31 12.2917 14.7 12.4517L19.61 14.5717C20.38 14.9017 21.01 14.4917 21.01 13.6517V12.3617C21.01 11.6917 20.51 10.9217 19.89 10.6617L14.3 8.25172C14.14 8.18172 14 7.97172 14 7.79172V4.79172C14 3.85172 13.31 2.74172 12.47 2.31172C12.17 2.16172 11.82 2.16172 11.52 2.31172C10.68 2.74172 9.98999 3.86172 9.98999 4.80172V7.80172C9.98999 7.98172 9.84999 8.19172 9.68999 8.26172L4.10999 10.6717C3.48999 10.9217 2.98999 11.6917 2.98999 12.3617V13.6517C2.98999 14.4917 3.61999 14.9017 4.38999 14.5717L9.29999 12.4517C9.67999 12.2817 9.99999 12.4917 9.99999 12.9117V15.7617C9.99999 15.9917 9.86999 16.3117 9.70999 16.4717L7.43999 18.7517C7.19999 18.9917 7.08999 19.4517 7.19999 19.7817L7.63999 21.1117C7.81999 21.6917 8.47999 21.9717 9.02999 21.6917Z" stroke="#25252D" stroke-width="1.5" stroke-linecap="round" stroke-linejoin="round"/>
</svg>
