<svg width="24" height="24" viewBox="0 0 24 24" fill="none" xmlns="http://www.w3.org/2000/svg">
<path d="M9.85953 19.0022L11.5395 17.5822C11.7895 17.3722 12.2095 17.3722 12.4695 17.5822L14.1395 19.0022C14.5295 19.2022 15.0095 19.0022 15.1495 18.5822L15.4695 17.6222C15.5495 17.3922 15.4695 17.0522 15.2995 16.8822L13.6595 15.2322C13.5395 15.1122 13.4495 14.8822 13.4495 14.7222V12.8722C13.4495 12.4522 13.7595 12.2522 14.1495 12.4122L17.4995 13.8522C18.0495 14.0922 18.5095 13.7922 18.5095 13.1922V12.2622C18.5095 11.7822 18.1495 11.2222 17.6995 11.0322L13.7595 9.33219C13.5895 9.26219 13.4595 9.05219 13.4595 8.87219V6.80219C13.4595 6.12219 12.9595 5.32219 12.3595 5.01219C12.1395 4.90219 11.8895 4.90219 11.6695 5.01219C11.0595 5.31219 10.5695 6.12219 10.5695 6.80219V8.87219C10.5695 9.05219 10.4295 9.26219 10.2695 9.33219L6.32953 11.0322C5.88953 11.2222 5.51953 11.7822 5.51953 12.2622V13.1922C5.51953 13.7922 5.96953 14.0922 6.52953 13.8522L9.87953 12.4122C10.2595 12.2422 10.5795 12.4522 10.5795 12.8722V14.7222C10.5795 14.8922 10.4795 15.1222 10.3695 15.2322L8.69953 16.8722C8.52953 17.0422 8.44953 17.3822 8.52953 17.6122L8.84953 18.5722C8.98953 19.0022 9.45953 19.2022 9.85953 19.0022Z" stroke="#25252D" stroke-width="1.5" stroke-linecap="round" stroke-linejoin="round"/>
<path d="M9 22H15C20 22 22 20 22 15V9C22 4 20 2 15 2H9C4 2 2 4 2 9V15C2 20 4 22 9 22Z" stroke="#25252D" stroke-width="1.5" stroke-linecap="round" stroke-linejoin="round"/>
</svg>
