<svg width="24" height="24" viewBox="0 0 24 24" fill="none" xmlns="http://www.w3.org/2000/svg">
<path d="M6.10004 15.5984L11.7 5.99844C11.9 5.69844 12.3 5.69844 12.5 5.99844L14 7.99844C14.4 8.59844 14.5 9.39844 14.1 9.99844L10.8 15.2984C10.5 15.7984 9.90004 16.1984 9.30004 16.1984H6.40004C6.10004 16.2984 5.90004 15.8984 6.10004 15.5984Z" stroke="#25252D" stroke-width="1.5" stroke-miterlimit="10" stroke-linecap="round" stroke-linejoin="round"/>
<path d="M15.1992 12.3969L13.2992 15.5969C13.0992 15.8969 13.2992 16.2969 13.6992 16.2969H17.4992C17.8992 16.2969 18.0992 15.8969 17.8992 15.5969L15.9992 12.3969C15.7992 12.0969 15.3992 12.0969 15.1992 12.3969Z" stroke="#25252D" stroke-width="1.5" stroke-miterlimit="10" stroke-linecap="round" stroke-linejoin="round"/>
<path d="M12 22C17.5228 22 22 17.5228 22 12C22 6.47715 17.5228 2 12 2C6.47715 2 2 6.47715 2 12C2 17.5228 6.47715 22 12 22Z" stroke="#25252D" stroke-width="1.5" stroke-miterlimit="10"/>
</svg>
