<svg width="24" height="24" viewBox="0 0 24 24" fill="none" xmlns="http://www.w3.org/2000/svg">
<path d="M4.25977 11.0214V15.9914C4.25977 17.8114 4.25977 17.8114 5.97977 18.9714L10.7098 21.7014C11.4198 22.1114 12.5798 22.1114 13.2898 21.7014L18.0198 18.9714C19.7398 17.8114 19.7398 17.8114 19.7398 15.9914V11.0214C19.7398 9.20141 19.7398 9.20141 18.0198 8.04141L13.2898 5.31141C12.5798 4.90141 11.4198 4.90141 10.7098 5.31141L5.97977 8.04141C4.25977 9.20141 4.25977 9.20141 4.25977 11.0214Z" stroke="#25252D" stroke-width="1.5" stroke-linecap="round" stroke-linejoin="round"/>
<path d="M17.5 7.63V5C17.5 3 16.5 2 14.5 2H9.5C7.5 2 6.5 3 6.5 5V7.56" stroke="#25252D" stroke-width="1.5" stroke-linecap="round" stroke-linejoin="round"/>
<path d="M12.63 10.9909L13.2 11.8809C13.29 12.0209 13.49 12.1609 13.64 12.2009L14.66 12.4609C15.29 12.6209 15.46 13.1609 15.05 13.6609L14.38 14.4709C14.28 14.6009 14.2 14.8309 14.21 14.9909L14.27 16.0409C14.31 16.6909 13.85 17.0209 13.25 16.7809L12.27 16.3909C12.12 16.3309 11.87 16.3309 11.72 16.3909L10.74 16.7809C10.14 17.0209 9.68002 16.6809 9.72002 16.0409L9.78002 14.9909C9.79002 14.8309 9.71002 14.5909 9.61002 14.4709L8.94002 13.6609C8.53002 13.1609 8.70002 12.6209 9.33002 12.4609L10.35 12.2009C10.51 12.1609 10.71 12.0109 10.79 11.8809L11.36 10.9909C11.72 10.4509 12.28 10.4509 12.63 10.9909Z" stroke="#25252D" stroke-width="1.5" stroke-linecap="round" stroke-linejoin="round"/>
</svg>
