<svg width="24" height="24" viewBox="0 0 24 24" fill="none" xmlns="http://www.w3.org/2000/svg">
<path d="M22.0002 8.33945V15.6595C22.0002 17.1595 20.3703 18.0995 19.0703 17.3495L15.9002 15.5295L12.7303 13.6995C12.5303 13.5795 12.3702 13.4495 12.2402 13.2895V10.7295C12.3702 10.5695 12.5303 10.4395 12.7303 10.3195L15.9002 8.48945L19.0703 6.66947C20.3703 5.89947 22.0002 6.83945 22.0002 8.33945Z" stroke="#25252D" stroke-width="1.5" stroke-linecap="round" stroke-linejoin="round"/>
<path d="M12.2391 8.33945V15.6595C12.2391 17.1595 10.6091 18.0995 9.30914 17.3495L6.13915 15.5295L2.96914 13.6995C1.66914 12.9495 1.66914 11.0795 2.96914 10.3195L6.13915 8.48945L9.30914 6.66947C10.6091 5.89947 12.2391 6.83945 12.2391 8.33945Z" stroke="#25252D" stroke-width="1.5" stroke-linecap="round" stroke-linejoin="round"/>
</svg>
