<svg width="24" height="24" viewBox="0 0 24 24" fill="none" xmlns="http://www.w3.org/2000/svg">
<path d="M9.53906 15.92V10.5801L8.03906 12.2501" stroke="#25252D" stroke-width="1.5" stroke-linecap="round" stroke-linejoin="round"/>
<path d="M10.0195 4.46997L11.9995 2" stroke="#25252D" stroke-width="1.5" stroke-linecap="round" stroke-linejoin="round"/>
<path d="M4.90939 7.79877C3.79939 9.27877 3.10938 11.1088 3.10938 13.1088C3.10938 18.0188 7.08939 21.9988 11.9994 21.9988C16.9094 21.9988 20.8894 18.0188 20.8894 13.1088C20.8894 8.19876 16.9094 4.21875 11.9994 4.21875C11.3194 4.21875 10.6594 4.3088 10.0194 4.4588" stroke="#25252D" stroke-width="1.5" stroke-linecap="round" stroke-linejoin="round"/>
<path d="M14 10.5801C15.1 10.5801 16 11.4801 16 12.5801V13.9301C16 15.0301 15.1 15.9301 14 15.9301C12.9 15.9301 12 15.0301 12 13.9301V12.5801C12 11.4701 12.9 10.5801 14 10.5801Z" stroke="#25252D" stroke-width="1.5" stroke-linecap="round" stroke-linejoin="round"/>
</svg>
