<svg width="24" height="24" viewBox="0 0 24 24" fill="none" xmlns="http://www.w3.org/2000/svg">
<path d="M11.4004 2.4L6.30039 7.5C6.10039 7.7 6.10039 8 6.30039 8.2L8.00039 9.9C8.20039 10.1 8.50039 10.1 8.70039 9.9L13.8004 4.8C14.0004 4.6 14.0004 4.3 13.8004 4.1L12.1004 2.4C11.9004 2.2 11.6004 2.2 11.4004 2.4Z" stroke="#25252D" stroke-width="1.5" stroke-miterlimit="10" stroke-linecap="round" stroke-linejoin="round"/>
<path d="M15.3004 6.29844L6.30039 15.2984C6.10039 15.4984 6.10039 15.7984 6.30039 15.9984L8.00039 17.6984C8.20039 17.8984 8.50039 17.8984 8.70039 17.6984L17.7004 8.69844C17.9004 8.49844 17.9004 8.19844 17.7004 7.99844L16.0004 6.29844C15.8004 6.09844 15.5004 6.09844 15.3004 6.29844Z" stroke="#25252D" stroke-width="1.5" stroke-miterlimit="10" stroke-linecap="round" stroke-linejoin="round"/>
<path d="M19.2008 10.2008L10.2008 19.2008C10.0008 19.4008 10.0008 19.7008 10.2008 19.9008L11.9008 21.6008C12.1008 21.8008 12.4008 21.8008 12.6008 21.6008L21.6008 12.6008C21.8008 12.4008 21.8008 12.1008 21.6008 11.9008L19.9008 10.2008C19.7008 10.0008 19.4008 10.0008 19.2008 10.2008Z" stroke="#25252D" stroke-width="1.5" stroke-miterlimit="10" stroke-linecap="round" stroke-linejoin="round"/>
<path d="M4.1 13.8008L2.4 12.1008C2.2 11.9008 2.2 11.6008 2.4 11.4008L4.1 9.70078C4.3 9.50078 4.6 9.50078 4.8 9.70078L6.5 11.4008C6.7 11.6008 6.7 11.9008 6.5 12.1008L4.8 13.8008C4.6 14.0008 4.3 14.0008 4.1 13.8008Z" stroke="#25252D" stroke-width="1.5" stroke-miterlimit="10" stroke-linecap="round" stroke-linejoin="round"/>
</svg>
