<svg width="24" height="24" viewBox="0 0 24 24" fill="none" xmlns="http://www.w3.org/2000/svg">
<path d="M16.2996 15.3016C15.2996 16.6016 13.6996 17.5016 11.9996 17.5016C8.99961 17.5016 6.59961 15.1016 6.59961 12.1016C6.59961 9.10156 8.99961 6.60156 11.9996 6.60156C13.1996 6.60156 14.3996 7.00156 15.2996 7.70156" stroke="#25252D" stroke-width="1.5" stroke-miterlimit="10" stroke-linecap="round" stroke-linejoin="round"/>
<path d="M17.3992 11.4C18.062 11.4 18.5992 10.8627 18.5992 10.2C18.5992 9.53726 18.062 9 17.3992 9C16.7365 9 16.1992 9.53726 16.1992 10.2C16.1992 10.8627 16.7365 11.4 17.3992 11.4Z" stroke="#25252D" stroke-width="1.5" stroke-miterlimit="10" stroke-linecap="round" stroke-linejoin="round"/>
<path d="M12 22C17.5228 22 22 17.5228 22 12C22 6.47715 17.5228 2 12 2C6.47715 2 2 6.47715 2 12C2 17.5228 6.47715 22 12 22Z" stroke="#25252D" stroke-width="1.5" stroke-miterlimit="10" stroke-linecap="round" stroke-linejoin="round"/>
</svg>
