<svg width="24" height="24" viewBox="0 0 24 24" fill="none" xmlns="http://www.w3.org/2000/svg">
<path d="M15.7194 9.68953C17.7794 11.7495 17.7794 15.0795 15.7194 17.1295C13.6594 19.1895 10.3294 19.1895 8.27937 17.1295C6.21938 15.0695 6.21938 11.7395 8.27937 9.68953C10.3294 7.62953 13.6694 7.62953 15.7194 9.68953Z" stroke="#25252D" stroke-width="1.5093" stroke-linecap="round" stroke-linejoin="round"/>
<path d="M11.9999 13.4102L10.4099 15.0002" stroke="#25252D" stroke-width="1.5093" stroke-linecap="round" stroke-linejoin="round"/>
<path d="M19.0708 6.33875C19.2208 6.48875 19.2208 6.73875 19.0708 6.89875C18.9208 7.04875 18.6708 7.04875 18.5108 6.89875C18.3508 6.74875 18.3608 6.49875 18.5108 6.33875C18.6608 6.17875 18.9208 6.17875 19.0708 6.33875Z" stroke="#25252D" stroke-miterlimit="10"/>
<path d="M19.0708 6.33875C19.2208 6.48875 19.2208 6.73875 19.0708 6.89875C18.9208 7.04875 18.6708 7.04875 18.5108 6.89875C18.3508 6.74875 18.3608 6.49875 18.5108 6.33875C18.6608 6.17875 18.9208 6.17875 19.0708 6.33875Z" stroke="#25252D" stroke-width="1.5" stroke-linecap="round" stroke-linejoin="round"/>
<path d="M5.49086 19.9208C5.64086 20.0708 5.64086 20.3208 5.49086 20.4808C5.34086 20.6408 5.09086 20.6308 4.93086 20.4808C4.78086 20.3308 4.78086 20.0808 4.93086 19.9208C5.08086 19.7608 5.34086 19.7608 5.49086 19.9208Z" stroke="#25252D" stroke-miterlimit="10"/>
<path d="M5.49086 19.9208C5.64086 20.0708 5.64086 20.3208 5.49086 20.4808C5.34086 20.6408 5.09086 20.6308 4.93086 20.4808C4.78086 20.3308 4.78086 20.0808 4.93086 19.9208C5.08086 19.7608 5.34086 19.7608 5.49086 19.9208Z" stroke="#25252D" stroke-width="1.5" stroke-linecap="round" stroke-linejoin="round"/>
<path d="M21.8794 13.1298C22.0294 13.2798 22.0294 13.5298 21.8794 13.6898C21.7294 13.8398 21.4794 13.8398 21.3194 13.6898C21.1594 13.5398 21.1694 13.2898 21.3194 13.1298C21.4694 12.9698 21.7294 12.9698 21.8794 13.1298Z" stroke="#25252D" stroke-miterlimit="10"/>
<path d="M21.8794 13.1298C22.0294 13.2798 22.0294 13.5298 21.8794 13.6898C21.7294 13.8398 21.4794 13.8398 21.3194 13.6898C21.1594 13.5398 21.1694 13.2898 21.3194 13.1298C21.4694 12.9698 21.7294 12.9698 21.8794 13.1298Z" stroke="#25252D" stroke-width="1.5" stroke-linecap="round" stroke-linejoin="round"/>
<path d="M2.67057 13.1298C2.82057 13.2798 2.82057 13.5298 2.67057 13.6898C2.52057 13.8498 2.27055 13.8398 2.11055 13.6898C1.96055 13.5398 1.96055 13.2898 2.11055 13.1298C2.27055 12.9698 2.52057 12.9698 2.67057 13.1298Z" stroke="#25252D" stroke-miterlimit="10"/>
<path d="M2.67057 13.1298C2.82057 13.2798 2.82057 13.5298 2.67057 13.6898C2.52057 13.8498 2.27055 13.8398 2.11055 13.6898C1.96055 13.5398 1.96055 13.2898 2.11055 13.1298C2.27055 12.9698 2.52057 12.9698 2.67057 13.1298Z" stroke="#25252D" stroke-width="1.5" stroke-linecap="round" stroke-linejoin="round"/>
<path d="M19.0708 19.9208C19.2208 20.0708 19.2208 20.3208 19.0708 20.4808C18.9208 20.6308 18.6708 20.6308 18.5108 20.4808C18.3508 20.3308 18.3608 20.0808 18.5108 19.9208C18.6708 19.7608 18.9208 19.7608 19.0708 19.9208Z" stroke="#25252D" stroke-miterlimit="10"/>
<path d="M19.0708 19.9208C19.2208 20.0708 19.2208 20.3208 19.0708 20.4808C18.9208 20.6308 18.6708 20.6308 18.5108 20.4808C18.3508 20.3308 18.3608 20.0808 18.5108 19.9208C18.6708 19.7608 18.9208 19.7608 19.0708 19.9208Z" stroke="#25252D" stroke-width="1.5" stroke-linecap="round" stroke-linejoin="round"/>
<path d="M5.49086 6.33875C5.64086 6.48875 5.64086 6.73875 5.49086 6.89875C5.34086 7.05875 5.09086 7.04875 4.93086 6.89875C4.78086 6.74875 4.78086 6.49875 4.93086 6.33875C5.08086 6.17875 5.34086 6.17875 5.49086 6.33875Z" stroke="#25252D" stroke-miterlimit="10"/>
<path d="M5.49086 6.33875C5.64086 6.48875 5.64086 6.73875 5.49086 6.89875C5.34086 7.05875 5.09086 7.04875 4.93086 6.89875C4.78086 6.74875 4.78086 6.49875 4.93086 6.33875C5.08086 6.17875 5.34086 6.17875 5.49086 6.33875Z" stroke="#25252D" stroke-width="1.5" stroke-linecap="round" stroke-linejoin="round"/>
<path d="M12.2798 3.51862C12.4298 3.66862 12.4298 3.91862 12.2798 4.07862C12.1298 4.23862 11.8798 4.22862 11.7198 4.07862C11.5598 3.92862 11.5698 3.67862 11.7198 3.51862C11.8698 3.35862 12.1298 3.36862 12.2798 3.51862Z" stroke="#25252D" stroke-miterlimit="10"/>
<path d="M12.2798 3.51862C12.4298 3.66862 12.4298 3.91862 12.2798 4.07862C12.1298 4.23862 11.8798 4.22862 11.7198 4.07862C11.5598 3.92862 11.5698 3.67862 11.7198 3.51862C11.8698 3.35862 12.1298 3.36862 12.2798 3.51862Z" stroke="#25252D" stroke-width="1.5" stroke-linecap="round" stroke-linejoin="round"/>
</svg>
