<svg width="24" height="24" viewBox="0 0 24 24" fill="none" xmlns="http://www.w3.org/2000/svg">
<path d="M14.5512 2H9.45117C7.65117 2 7.25118 2.90001 7.02118 4.01001L6.20117 7.92999H17.8012L16.9812 4.01001C16.7512 2.90001 16.3512 2 14.5512 2Z" stroke="#25252D" stroke-width="1.5" stroke-linecap="round" stroke-linejoin="round"/>
<path d="M19.2405 14.3219C19.3205 15.1719 18.6405 15.9019 17.7705 15.9019H16.4105C15.6305 15.9019 15.5205 15.5719 15.3805 15.1519L15.2305 14.7219C15.0305 14.1319 14.9005 13.7319 13.8505 13.7319H10.1405C9.10054 13.7319 8.94054 14.1819 8.76054 14.7219L8.61054 15.1519C8.47054 15.5619 8.36054 15.9019 7.58054 15.9019H6.22054C5.35054 15.9019 4.67054 15.1719 4.75054 14.3219L5.16055 9.90192C5.26055 8.81192 5.47054 7.92188 7.37054 7.92188H16.6205C18.5205 7.92188 18.7305 8.81192 18.8305 9.90192L19.2405 14.3219Z" stroke="#25252D" stroke-width="1.5" stroke-linecap="round" stroke-linejoin="round"/>
<path d="M6.20045 5.75H5.47046" stroke="#25252D" stroke-width="1.5" stroke-linecap="round" stroke-linejoin="round"/>
<path d="M18.5305 5.75H17.8005" stroke="#25252D" stroke-width="1.5" stroke-linecap="round" stroke-linejoin="round"/>
<path d="M7.65063 10.8281H9.82065" stroke="#25252D" stroke-width="1.5" stroke-linecap="round" stroke-linejoin="round"/>
<path d="M14.1797 10.8281H16.3497" stroke="#25252D" stroke-width="1.5" stroke-linecap="round" stroke-linejoin="round"/>
<path d="M12 17V18" stroke="#25252D" stroke-width="1.5" stroke-linecap="round" stroke-linejoin="round"/>
<path d="M12 21V22" stroke="#25252D" stroke-width="1.5" stroke-linecap="round" stroke-linejoin="round"/>
<path d="M3 18L2 22" stroke="#25252D" stroke-width="1.5" stroke-linecap="round" stroke-linejoin="round"/>
<path d="M21 18L22 22" stroke="#25252D" stroke-width="1.5" stroke-linecap="round" stroke-linejoin="round"/>
</svg>
