<svg width="24" height="24" viewBox="0 0 24 24" fill="none" xmlns="http://www.w3.org/2000/svg">
<path d="M8.50014 5.10156L11.2001 7.80156C11.6001 8.20156 12.4001 8.20156 12.8001 7.80156L15.5001 5.10156C16.2001 4.40156 15.7001 3.10156 14.7001 3.10156H9.30014C8.30014 3.20156 7.80014 4.40156 8.50014 5.10156Z" stroke="#25252D" stroke-width="1.5" stroke-miterlimit="10" stroke-linecap="round" stroke-linejoin="round"/>
<path d="M8.50014 18.8984L11.2001 16.1984C11.6001 15.7984 12.4001 15.7984 12.8001 16.1984L15.5001 18.8984C16.2001 19.5984 15.7001 20.8984 14.7001 20.8984H9.30014C8.30014 20.7984 7.80014 19.5984 8.50014 18.8984Z" stroke="#25252D" stroke-width="1.5" stroke-miterlimit="10" stroke-linecap="round" stroke-linejoin="round"/>
<path d="M2.19961 11.5006L4.39961 8.00061C4.69961 7.40061 5.49961 7.30061 5.99961 7.80061L9.49961 11.3006C9.89961 11.7006 9.89961 12.3006 9.49961 12.7006L5.99961 16.2006C5.49961 16.7006 4.79961 16.6006 4.39961 16.0006L2.19961 12.5006C1.89961 12.2006 1.89961 11.8006 2.19961 11.5006Z" stroke="#25252D" stroke-width="1.5" stroke-miterlimit="10" stroke-linecap="round" stroke-linejoin="round"/>
<path d="M21.7992 11.5015L19.5992 8.00151C19.2992 7.50151 18.4992 7.40151 17.9992 7.80151L14.4992 11.3015C14.0992 11.7015 14.0992 12.3015 14.4992 12.7015L17.9992 16.2015C18.4992 16.7015 19.1992 16.6015 19.5992 16.0015L21.7992 12.5015C22.0992 12.2015 22.0992 11.8015 21.7992 11.5015Z" stroke="#25252D" stroke-width="1.5" stroke-miterlimit="10" stroke-linecap="round" stroke-linejoin="round"/>
</svg>
