<svg width="24" height="24" viewBox="0 0 24 24" fill="none" xmlns="http://www.w3.org/2000/svg">
<path d="M10.8008 3.40078L7.2008 7.70078C7.1008 7.90078 7.0008 8.20078 6.9008 8.40078L5.2008 17.0008C5.1008 17.6008 5.4008 18.3008 5.9008 18.6008L11.2008 21.6008C11.6008 21.8008 12.3008 21.8008 12.7008 21.6008L18.0008 18.6008C18.5008 18.3008 18.8008 17.6008 18.7008 17.0008L17.0008 8.40078C17.0008 8.20078 16.8008 7.90078 16.7008 7.70078L13.1008 3.40078C12.5008 2.60078 11.5008 2.60078 10.8008 3.40078Z" stroke="#25252D" stroke-width="1.5" stroke-miterlimit="10" stroke-linecap="round" stroke-linejoin="round"/>
<path d="M16.7992 8.5L12.4992 20.7C12.2992 21.1 11.6992 21.1 11.5992 20.7L7.19922 8.5" stroke="#25252D" stroke-width="1.5" stroke-miterlimit="10" stroke-linecap="round" stroke-linejoin="round"/>
</svg>
