<svg width="24" height="24" viewBox="0 0 24 24" fill="none" xmlns="http://www.w3.org/2000/svg">
<path d="M10.4506 3.04859L6.71063 7.70859C5.86063 8.76859 6.16063 10.1286 7.37063 10.7286L11.1006 12.5986C11.5906 12.8386 12.3906 12.8386 12.8806 12.5986L16.6106 10.7286C17.8206 10.1186 18.1206 8.75859 17.2706 7.70859L13.5406 3.04859C12.7006 1.97859 11.3006 1.97859 10.4506 3.04859Z" stroke="#25252D" stroke-width="1.5" stroke-miterlimit="10" stroke-linecap="round" stroke-linejoin="round"/>
<path d="M12 2.29688V7.55688" stroke="#25252D" stroke-width="1.5" stroke-miterlimit="10" stroke-linecap="round" stroke-linejoin="round"/>
<path d="M7.80054 10.7086L12.0005 7.55859L16.2005 10.7086" stroke="#25252D" stroke-width="1.5" stroke-miterlimit="10" stroke-linecap="round" stroke-linejoin="round"/>
<path d="M8.77011 14.4262L10.3801 15.1462C11.4101 15.6062 12.5901 15.6062 13.6301 15.1462L15.2401 14.4262C16.6801 13.7862 18.0101 15.5262 17.0101 16.7462L13.5501 20.9762C12.7001 22.0162 11.3101 22.0162 10.4501 20.9762L7.00011 16.7462C5.99011 15.5262 7.32011 13.7862 8.77011 14.4262Z" stroke="#25252D" stroke-width="1.5" stroke-miterlimit="10" stroke-linecap="round" stroke-linejoin="round"/>
</svg>
