<svg width="24" height="24" viewBox="0 0 24 24" fill="none" xmlns="http://www.w3.org/2000/svg">
<path d="M6.89967 9.1L11.6997 7C11.8997 6.9 12.0997 6.9 12.3997 7L17.1997 9.1C17.5997 9.3 17.9997 8.8 17.6997 8.4L12.6997 2.3C12.3997 1.9 11.7997 1.9 11.4997 2.3L6.49967 8.4C6.09967 8.8 6.49967 9.3 6.89967 9.1Z" stroke="#25252D" stroke-width="1.5" stroke-miterlimit="10" stroke-linecap="round" stroke-linejoin="round"/>
<path d="M6.89967 14.901L11.6997 17.001C11.8997 17.101 12.0997 17.101 12.3997 17.001L17.1997 14.901C17.5997 14.701 17.9997 15.201 17.6997 15.601L12.6997 21.701C12.3997 22.101 11.7997 22.101 11.4997 21.701L6.49967 15.601C6.09967 15.201 6.49967 14.701 6.89967 14.901Z" stroke="#25252D" stroke-width="1.5" stroke-miterlimit="10" stroke-linecap="round" stroke-linejoin="round"/>
<path d="M12.0008 9.39844L6.80078 11.9984L12.0008 14.5984L17.2008 11.9984L12.0008 9.39844Z" stroke="#25252D" stroke-width="1.5" stroke-miterlimit="10" stroke-linecap="round" stroke-linejoin="round"/>
</svg>
