<svg width="24" height="24" viewBox="0 0 24 24" fill="none" xmlns="http://www.w3.org/2000/svg">
<path d="M12.0008 2H8.70078C6.80078 2 5.30078 3.5 5.30078 5.3C5.30078 7.1 6.80078 8.6 8.60078 8.6H12.0008V2Z" stroke="#25252D" stroke-width="1.5" stroke-miterlimit="10"/>
<path d="M12.0004 8.69922H8.70039C6.90039 8.69922 5.40039 10.1992 5.40039 11.9992C5.40039 13.7992 6.90039 15.2992 8.70039 15.2992H12.0004V8.69922Z" stroke="#25252D" stroke-width="1.5" stroke-miterlimit="10"/>
<path d="M12.0004 15.3008H8.70039C6.90039 15.3008 5.40039 16.8008 5.40039 18.6008C5.40039 20.4008 6.90039 21.9008 8.70039 21.9008C10.5004 21.9008 12.0004 20.4008 12.0004 18.6008V15.3008Z" stroke="#25252D" stroke-width="1.5" stroke-miterlimit="10"/>
<path d="M12 2H15.3C17.1 2 18.6 3.5 18.6 5.3C18.6 7.1 17.1 8.6 15.3 8.6H12V2Z" stroke="#25252D" stroke-width="1.5" stroke-miterlimit="10"/>
<path d="M15.3 8.69922C17.1 8.69922 18.6 10.1992 18.6 11.9992C18.6 13.7992 17.1 15.2992 15.3 15.2992C13.5 15.2992 12 13.7992 12 11.9992C12 10.1992 13.5 8.69922 15.3 8.69922Z" stroke="#25252D" stroke-width="1.5" stroke-miterlimit="10"/>
</svg>
