<svg width="24" height="24" viewBox="0 0 24 24" fill="none" xmlns="http://www.w3.org/2000/svg">
<path d="M15.9587 10.8301H12.8987L12.1387 13.1201H14.4286C15.2686 13.1201 15.9587 13.8001 15.9587 14.6501C15.9587 15.4901 15.2786 16.1801 14.4286 16.1801H12.1387" stroke="#25252D" stroke-width="1.5" stroke-linecap="round" stroke-linejoin="round"/>
<path d="M9.53906 16.17V10.8301L8.03906 12.5001" stroke="#25252D" stroke-width="1.5" stroke-linecap="round" stroke-linejoin="round"/>
<path d="M13.98 4.46997L12 2" stroke="#25252D" stroke-width="1.5" stroke-linecap="round" stroke-linejoin="round"/>
<path d="M19.0894 7.79877C20.1994 9.27877 20.8894 11.1088 20.8894 13.1088C20.8894 18.0188 16.9094 21.9988 11.9994 21.9988C7.08939 21.9988 3.10938 18.0188 3.10938 13.1088C3.10938 8.19876 7.08939 4.21875 11.9994 4.21875C12.6794 4.21875 13.3394 4.3088 13.9794 4.4588" stroke="#25252D" stroke-width="1.5" stroke-linecap="round" stroke-linejoin="round"/>
</svg>
