<svg width="24" height="24" viewBox="0 0 24 24" fill="none" xmlns="http://www.w3.org/2000/svg">
<path d="M2 8.33945V15.6595C2 17.1595 3.62999 18.0995 4.92999 17.3495L8.10001 15.5295L11.27 13.6995C11.47 13.5795 11.63 13.4495 11.76 13.2895V10.7295C11.63 10.5695 11.47 10.4395 11.27 10.3195L8.10001 8.48945L4.92999 6.66947C3.62999 5.89947 2 6.83945 2 8.33945Z" stroke="#25252D" stroke-width="1.5" stroke-linecap="round" stroke-linejoin="round"/>
<path d="M11.7598 8.33945V15.6595C11.7598 17.1595 13.3898 18.0995 14.6898 17.3495L17.8597 15.5295L21.0298 13.6995C22.3298 12.9495 22.3298 11.0795 21.0298 10.3195L17.8597 8.48945L14.6898 6.66947C13.3898 5.89947 11.7598 6.83945 11.7598 8.33945Z" stroke="#25252D" stroke-width="1.5" stroke-linecap="round" stroke-linejoin="round"/>
</svg>
