<svg width="24" height="24" viewBox="0 0 24 24" fill="none" xmlns="http://www.w3.org/2000/svg">
<path d="M13.98 4.46997L12 2" stroke="#25252D" stroke-width="1.5" stroke-linecap="round" stroke-linejoin="round"/>
<path d="M19.0894 7.79877C20.1994 9.27877 20.8894 11.1088 20.8894 13.1088C20.8894 18.0188 16.9094 21.9988 11.9994 21.9988C7.08939 21.9988 3.10938 18.0188 3.10938 13.1088C3.10938 8.19876 7.08939 4.21875 11.9994 4.21875C12.6794 4.21875 13.3394 4.3088 13.9794 4.4588" stroke="#25252D" stroke-width="1.5" stroke-linecap="round" stroke-linejoin="round"/>
<path d="M9.53906 15.92V10.5801L8.03906 12.2501" stroke="#25252D" stroke-width="1.5" stroke-linecap="round" stroke-linejoin="round"/>
<path d="M14 10.5801C15.1 10.5801 16 11.4801 16 12.5801V13.9301C16 15.0301 15.1 15.9301 14 15.9301C12.9 15.9301 12 15.0301 12 13.9301V12.5801C12 11.4701 12.9 10.5801 14 10.5801Z" stroke="#25252D" stroke-width="1.5" stroke-linecap="round" stroke-linejoin="round"/>
</svg>
