<svg width="24" height="24" viewBox="0 0 24 24" fill="none" xmlns="http://www.w3.org/2000/svg">
<path d="M9 10C10.1046 10 11 9.10457 11 8C11 6.89543 10.1046 6 9 6C7.89543 6 7 6.89543 7 8C7 9.10457 7.89543 10 9 10Z" stroke="#25252D" stroke-width="1.5" stroke-linecap="round" stroke-linejoin="round"/>
<path d="M13 2H9C4 2 2 4 2 9V15C2 20 4 22 9 22H15C20 22 22 20 22 15V10" stroke="#25252D" stroke-width="1.5" stroke-linecap="round" stroke-linejoin="round"/>
<path d="M19.1409 2.58869L15.5109 6.21869C15.3709 6.35869 15.2309 6.62869 15.2109 6.82869L15.0109 8.21869C14.9409 8.71869 15.2909 9.06869 15.7909 8.99869L17.1809 8.79869C17.3709 8.76869 17.6509 8.63869 17.7909 8.49869L21.4209 4.86869C22.0509 4.23869 22.3409 3.51869 21.4209 2.59869C20.4909 1.65869 19.7709 1.95869 19.1409 2.58869Z" stroke="#25252D" stroke-width="1.5" stroke-miterlimit="10" stroke-linecap="round" stroke-linejoin="round"/>
<path d="M18.6191 3.10938C18.9291 4.20938 19.7891 5.06938 20.8891 5.37938" stroke="#25252D" stroke-width="1.5" stroke-miterlimit="10" stroke-linecap="round" stroke-linejoin="round"/>
<path d="M2.66992 18.9486L7.59992 15.6386C8.38992 15.1086 9.52992 15.1686 10.2399 15.7786L10.5699 16.0686C11.3499 16.7386 12.6099 16.7386 13.3899 16.0686L17.5499 12.4986C18.3299 11.8286 19.5899 11.8286 20.3699 12.4986L21.9999 13.8986" stroke="#25252D" stroke-width="1.5" stroke-linecap="round" stroke-linejoin="round"/>
</svg>
