<svg width="24" height="24" viewBox="0 0 24 24" fill="none" xmlns="http://www.w3.org/2000/svg">
<path d="M9 10C10.1046 10 11 9.10457 11 8C11 6.89543 10.1046 6 9 6C7.89543 6 7 6.89543 7 8C7 9.10457 7.89543 10 9 10Z" stroke="#25252D" stroke-width="1.5" stroke-linecap="round" stroke-linejoin="round"/>
<path d="M12 2H9C4 2 2 4 2 9V15C2 20 4 22 9 22H15C20 22 22 20 22 15V11" stroke="#25252D" stroke-width="1.5" stroke-linecap="round" stroke-linejoin="round"/>
<path d="M16.1197 5.11137C15.7897 4.07137 16.1797 2.78137 17.2597 2.43137C17.8297 2.25137 18.5397 2.40137 18.9397 2.95137C19.3197 2.38137 20.0497 2.24137 20.6197 2.43137C21.7097 2.78137 22.0997 4.07137 21.7697 5.11137C21.2497 6.75137 19.4497 7.61137 18.9497 7.61137C18.4397 7.61137 16.6497 6.77137 16.1197 5.11137Z" stroke="#25252D" stroke-width="1.5" stroke-linecap="round" stroke-linejoin="round"/>
<path d="M2.66992 18.9486L7.59992 15.6386C8.38992 15.1086 9.52992 15.1686 10.2399 15.7786L10.5699 16.0686C11.3499 16.7386 12.6099 16.7386 13.3899 16.0686L17.5499 12.4986C18.3299 11.8286 19.5899 11.8286 20.3699 12.4986L21.9999 13.8986" stroke="#25252D" stroke-width="1.5" stroke-linecap="round" stroke-linejoin="round"/>
</svg>
