<svg width="24" height="24" viewBox="0 0 24 24" fill="none" xmlns="http://www.w3.org/2000/svg">
<path d="M2.7627 8.28848C6.70177 6.9733 10.8536 6.52248 14.9385 6.93594L13.543 8.33048C10.0727 8.13674 6.57441 8.59711 3.23731 9.71133C2.84456 9.84236 2.42034 9.63035 2.28907 9.2377C2.15791 8.84483 2.36982 8.41967 2.7627 8.28848ZM18.54 7.53165C19.4476 7.74044 20.3482 7.99162 21.2373 8.28848C21.63 8.41973 21.8419 8.84496 21.7109 9.2377C21.5797 9.63027 21.1554 9.8422 20.7627 9.71133C19.6169 9.32875 18.4515 9.02469 17.2754 8.7963L18.54 7.53165Z" fill="#25252D"/>
<path d="M20.5654 5.50684C21.9353 7.31107 22.75 9.55993 22.75 12C22.75 17.9371 17.9371 22.75 12 22.75C9.55993 22.75 7.31107 21.9353 5.50684 20.5654L6.5791 19.4932C8.1026 20.5973 9.97463 21.25 12 21.25C17.1086 21.25 21.25 17.1086 21.25 12C21.25 9.97463 20.5973 8.1026 19.4932 6.5791L20.5654 5.50684ZM12 1.25C14.4264 1.25 16.6648 2.0542 18.4639 3.41016L17.3896 4.48438C15.8718 3.39396 14.0116 2.75 12 2.75C6.89137 2.75 2.75 6.89137 2.75 12C2.75 14.0116 3.39396 15.8718 4.48438 17.3896L3.41016 18.4639C2.0542 16.6648 1.25 14.4264 1.25 12C1.25 6.06294 6.06294 1.25 12 1.25Z" fill="#25252D"/>
<path d="M20.7627 14.2886C20.9913 14.2123 21.2429 14.2503 21.4385 14.3912C21.634 14.5321 21.7499 14.7586 21.75 14.9996V15.9996C21.75 16.4138 21.4142 16.7496 21 16.7496C20.5927 16.7496 20.2619 16.4248 20.251 16.0201C16.5933 17.0988 12.7753 17.4439 9.01465 17.0572L10.4062 15.6656C13.8932 15.8666 17.4093 15.4083 20.7627 14.2886ZM2.56152 14.3912C2.75712 14.2503 3.00868 14.2123 3.2373 14.2886C4.36858 14.6664 5.51874 14.9674 6.67969 15.1949L5.41602 16.4576C4.85699 16.3281 4.30051 16.183 3.74805 16.0201C3.73716 16.4248 3.40734 16.7496 3 16.7496C2.58579 16.7496 2.25 16.4138 2.25 15.9996V14.9996C2.25011 14.7586 2.36603 14.5321 2.56152 14.3912Z" fill="#25252D"/>
<path d="M17.0581 9.01422C17.4798 13.1142 17.0317 17.2826 15.7114 21.2369C15.5803 21.6297 15.156 21.8415 14.7632 21.7105C14.3703 21.5793 14.1584 21.1551 14.2895 20.7623C15.4091 17.4092 15.8665 13.8934 15.6655 10.4068L17.0581 9.01422ZM14.7632 2.28863C15.1558 2.15788 15.5802 2.36975 15.7114 2.76227C16.0036 3.63726 16.2507 4.52366 16.4575 5.41656L15.1948 6.67926C14.9674 5.51847 14.6672 4.368 14.2895 3.23688C14.1586 2.84408 14.3704 2.41978 14.7632 2.28863Z" fill="#25252D"/>
<path d="M8.79786 17.2764C9.02624 18.4523 9.33039 19.6171 9.7129 20.7627C9.78919 20.9914 9.75125 21.2429 9.61036 21.4385C9.46948 21.634 9.24297 21.7499 9.00196 21.75H8.00196C7.58775 21.75 7.25196 21.4142 7.25196 21C7.25196 20.5929 7.57603 20.2622 7.98048 20.251C7.81353 19.6849 7.66409 19.115 7.53224 18.542L8.79786 17.2764ZM9.00196 2.25C9.24297 2.25013 9.46948 2.36596 9.61036 2.56152C9.75125 2.75713 9.78919 3.00864 9.7129 3.2373C8.59852 6.57472 8.1382 10.0734 8.33204 13.5439L6.93849 14.9375C6.55944 11.192 6.90611 7.39045 7.98048 3.74805C7.57605 3.73685 7.25196 3.40714 7.25196 3C7.25196 2.58579 7.58775 2.25001 8.00196 2.25H9.00196Z" fill="#25252D"/>
<rect x="1" y="22" width="29.0616" height="1.2" rx="0.6" transform="rotate(-45 1 22)" fill="#25252D"/>
</svg>
