<svg width="24" height="24" viewBox="0 0 24 24" fill="none" xmlns="http://www.w3.org/2000/svg">
<path d="M7.9407 14.51C7.3207 14.28 6.7707 13.83 6.4207 13.19C5.6207 11.73 6.1107 9.83001 7.5307 8.95001L9.8707 7.5C11.2807 6.62 13.1007 7.09999 13.9007 8.54999C14.7007 10.01 14.2107 11.91 12.7907 12.79L12.4807 13.01" stroke="#25252D" stroke-width="1.5" stroke-linecap="round" stroke-linejoin="round"/>
<path d="M16.1092 9.44995C16.7292 9.67995 17.2792 10.1299 17.6292 10.7699C18.4292 12.2299 17.9392 14.1299 16.5192 15.0099L14.1792 16.4599C12.7692 17.3399 10.9492 16.8599 10.1492 15.4099C9.34921 13.9499 9.83922 12.05 11.2592 11.17L11.5692 10.95" stroke="#25252D" stroke-width="1.5" stroke-linecap="round" stroke-linejoin="round"/>
<path d="M12 22C17.5228 22 22 17.5228 22 12C22 6.47715 17.5228 2 12 2C6.47715 2 2 6.47715 2 12C2 17.5228 6.47715 22 12 22Z" stroke="#25252D" stroke-width="1.5" stroke-linecap="round" stroke-linejoin="round"/>
</svg>
