<svg width="24" height="24" viewBox="0 0 24 24" fill="none" xmlns="http://www.w3.org/2000/svg">
<path d="M22 10V9C22 4 20 2 15 2H9C4 2 2 4 2 9V15C2 20 4 22 9 22H11" stroke="#25252D" stroke-width="1.5" stroke-linecap="round" stroke-linejoin="round"/>
<path d="M15.2701 21.9991C16.0654 21.9991 16.7101 21.3544 16.7101 20.5591C16.7101 19.7639 16.0654 19.1191 15.2701 19.1191C14.4748 19.1191 13.8301 19.7639 13.8301 20.5591C13.8301 21.3544 14.4748 21.9991 15.2701 21.9991Z" stroke="#25252D" stroke-width="1.5" stroke-linecap="round" stroke-linejoin="round"/>
<path d="M21.9992 19.5993V13.9594C21.9992 12.7594 21.2492 12.5893 20.4792 12.7993L17.5892 13.5894C17.0692 13.7294 16.6992 14.1494 16.6992 14.7494V15.7594V16.4394V20.5694" stroke="#25252D" stroke-width="1.5" stroke-linecap="round" stroke-linejoin="round"/>
<path d="M20.5591 21.0402C21.3544 21.0402 21.9991 20.3954 21.9991 19.6002C21.9991 18.8049 21.3544 18.1602 20.5591 18.1602C19.7638 18.1602 19.1191 18.8049 19.1191 19.6002C19.1191 20.3954 19.7638 21.0402 20.5591 21.0402Z" stroke="#25252D" stroke-width="1.5" stroke-linecap="round" stroke-linejoin="round"/>
<path d="M16.7109 16.4283L22.0009 14.9883" stroke="#25252D" stroke-width="1.5" stroke-linecap="round" stroke-linejoin="round"/>
</svg>
