<svg width="24" height="24" viewBox="0 0 24 24" fill="none" xmlns="http://www.w3.org/2000/svg">
<path d="M7.9707 22C10.1798 22 11.9707 20.2091 11.9707 18C11.9707 15.7909 10.1798 14 7.9707 14C5.76156 14 3.9707 15.7909 3.9707 18C3.9707 20.2091 5.76156 22 7.9707 22Z" stroke="#25252D" stroke-width="1.5" stroke-linecap="round" stroke-linejoin="round"/>
<path d="M11.9707 18V4" stroke="#25252D" stroke-width="1.5" stroke-linecap="round" stroke-linejoin="round"/>
<path d="M14.6105 2.11049L19.0305 3.58049C20.1005 3.94049 20.9805 5.15049 20.9805 6.28049V7.45049C20.9805 8.98049 19.8005 9.83049 18.3505 9.35049L13.9305 7.88049C12.8605 7.52049 11.9805 6.31049 11.9805 5.18049V4.00049C11.9705 2.48049 13.1605 1.62049 14.6105 2.11049Z" stroke="#25252D" stroke-width="1.5" stroke-linecap="round" stroke-linejoin="round"/>
</svg>
