<svg width="24" height="24" viewBox="0 0 24 24" fill="none" xmlns="http://www.w3.org/2000/svg">
<path d="M12.35 21H8.64999C3.89999 21 2 19.1 2 14.35V8.65002C2 3.90002 3.89999 2 8.64999 2H14.35C19.1 2 21 3.90002 21 8.65002V12.35" stroke="#25252D" stroke-width="1.5" stroke-linecap="round" stroke-linejoin="round"/>
<path d="M6.71953 14.4195C7.52034 14.4195 8.16953 13.7703 8.16953 12.9695C8.16953 12.1687 7.52034 11.5195 6.71953 11.5195C5.91872 11.5195 5.26953 12.1687 5.26953 12.9695C5.26953 13.7703 5.91872 14.4195 6.71953 14.4195Z" stroke="#25252D" stroke-width="1.5" stroke-linecap="round" stroke-linejoin="round"/>
<path d="M13.4794 11.9995V6.33952C13.4794 5.12952 12.7195 4.96949 11.9595 5.17949L9.06946 5.96946C8.54946 6.10946 8.17944 6.5295 8.17944 7.1295V8.13951V8.8195V12.9695" stroke="#25252D" stroke-width="1.5" stroke-linecap="round" stroke-linejoin="round"/>
<path d="M12.0301 13.4508C12.8309 13.4508 13.4801 12.8016 13.4801 12.0008C13.4801 11.2 12.8309 10.5508 12.0301 10.5508C11.2293 10.5508 10.5801 11.2 10.5801 12.0008C10.5801 12.8016 11.2293 13.4508 12.0301 13.4508Z" stroke="#25252D" stroke-width="1.5" stroke-linecap="round" stroke-linejoin="round"/>
<path d="M8.16992 8.82892L13.4799 7.37891" stroke="#25252D" stroke-width="1.5" stroke-linecap="round" stroke-linejoin="round"/>
<path d="M17.94 21.2809C19.7073 21.2809 21.14 19.8482 21.14 18.0809C21.14 16.3136 19.7073 14.8809 17.94 14.8809C16.1727 14.8809 14.74 16.3136 14.74 18.0809C14.74 19.8482 16.1727 21.2809 17.94 21.2809Z" stroke="#25252D" stroke-width="1.5" stroke-linecap="round" stroke-linejoin="round"/>
<path d="M21.74 21.8809L20.74 20.8809" stroke="#25252D" stroke-width="1.5" stroke-linecap="round" stroke-linejoin="round"/>
</svg>
