<svg width="24" height="24" viewBox="0 0 24 24" fill="none" xmlns="http://www.w3.org/2000/svg">
<path d="M21.6602 10.4385L20.6802 14.6185C19.8402 18.2285 18.1802 19.6885 15.0602 19.3885C14.5602 19.3485 14.0202 19.2585 13.4402 19.1185L11.7602 18.7185C7.59018 17.7285 6.30018 15.6685 7.28018 11.4885L8.26018 7.29854C8.46018 6.44854 8.70018 5.70854 9.00018 5.09854C10.1702 2.67854 12.1602 2.02854 15.5002 2.81854L17.1702 3.20854C21.3602 4.18854 22.6402 6.25854 21.6602 10.4385Z" stroke="#25252D" stroke-width="1.5" stroke-linecap="round" stroke-linejoin="round"/>
<path d="M15.0603 19.3896C14.4403 19.8096 13.6603 20.1596 12.7103 20.4696L11.1303 20.9896C7.16034 22.2696 5.07034 21.1996 3.78034 17.2296L2.50034 13.2796C1.22034 9.30961 2.28034 7.20961 6.25034 5.92961L7.83034 5.40961C8.24034 5.27961 8.63034 5.16961 9.00034 5.09961C8.70034 5.70961 8.46034 6.44961 8.26034 7.29961L7.28034 11.4896C6.30034 15.6696 7.59034 17.7296 11.7603 18.7196L13.4403 19.1196C14.0203 19.2596 14.5603 19.3496 15.0603 19.3896Z" stroke="#25252D" stroke-width="1.5" stroke-linecap="round" stroke-linejoin="round"/>
<path d="M12.6406 8.53125L17.4906 9.76125" stroke="#25252D" stroke-width="1.5" stroke-linecap="round" stroke-linejoin="round"/>
<path d="M11.6602 12.4004L14.5602 13.1404" stroke="#25252D" stroke-width="1.5" stroke-linecap="round" stroke-linejoin="round"/>
</svg>
