<svg width="24" height="24" viewBox="0 0 24 24" fill="none" xmlns="http://www.w3.org/2000/svg">
<path d="M11.9707 22C17.4936 22 21.9707 17.5228 21.9707 12C21.9707 6.47715 17.4936 2 11.9707 2C6.44786 2 1.9707 6.47715 1.9707 12C1.9707 17.5228 6.44786 22 11.9707 22Z" stroke="#25252D" stroke-width="1.5" stroke-linecap="round" stroke-linejoin="round"/>
<path d="M10.72 14.5308V9.47078C10.72 8.99078 10.52 8.80078 10.01 8.80078H8.71C8.2 8.80078 8 8.99078 8 9.47078V14.5308C8 15.0108 8.2 15.2008 8.71 15.2008H10C10.52 15.2008 10.72 15.0108 10.72 14.5308Z" stroke="#25252D" stroke-width="1.5" stroke-linecap="round" stroke-linejoin="round"/>
<path d="M15.9991 14.5308V9.47078C15.9991 8.99078 15.7991 8.80078 15.2891 8.80078H13.9991C13.4891 8.80078 13.2891 8.99078 13.2891 9.47078V14.5308C13.2891 15.0108 13.4891 15.2008 13.9991 15.2008H15.2891C15.7991 15.2008 15.9991 15.0108 15.9991 14.5308Z" stroke="#25252D" stroke-width="1.5" stroke-linecap="round" stroke-linejoin="round"/>
</svg>
