<svg width="24" height="24" viewBox="0 0 24 24" fill="none" xmlns="http://www.w3.org/2000/svg">
<path d="M10.7513 22.5001H13.2713C14.2313 22.5001 14.8513 21.8201 14.6713 20.9901L14.2613 19.1802H9.76129L9.3513 20.9901C9.1713 21.7701 9.8513 22.5001 10.7513 22.5001Z" stroke="#25252D" stroke-width="1.5" stroke-linecap="round" stroke-linejoin="round"/>
<path d="M14.2605 19.1702L15.9906 17.6301C16.9606 16.7701 17.0005 16.1701 16.2305 15.2001L13.1805 11.3302C12.5405 10.5202 11.4906 10.5202 10.8506 11.3302L7.80055 15.2001C7.03055 16.1701 7.03054 16.8001 8.04054 17.6301L9.77055 19.1702" stroke="#25252D" stroke-width="1.5" stroke-linecap="round" stroke-linejoin="round"/>
<path d="M12.0098 11.1201V13.6501" stroke="#25252D" stroke-width="1.5" stroke-linecap="round" stroke-linejoin="round"/>
<path d="M12.5195 5H11.5195C10.9695 5 10.5195 4.55 10.5195 4V3C10.5195 2.45 10.9695 2 11.5195 2H12.5195C13.0695 2 13.5195 2.45 13.5195 3V4C13.5195 4.55 13.0695 5 12.5195 5Z" stroke="#25252D" stroke-width="1.5" stroke-linecap="round" stroke-linejoin="round"/>
<path d="M3.26953 14.17H4.26953C4.81953 14.17 5.26953 13.72 5.26953 13.17V12.17C5.26953 11.62 4.81953 11.1699 4.26953 11.1699H3.26953C2.71953 11.1699 2.26953 11.62 2.26953 12.17V13.17C2.26953 13.72 2.71953 14.17 3.26953 14.17Z" stroke="#25252D" stroke-width="1.5" stroke-linecap="round" stroke-linejoin="round"/>
<path d="M20.7305 14.17H19.7305C19.1805 14.17 18.7305 13.72 18.7305 13.17V12.17C18.7305 11.62 19.1805 11.1699 19.7305 11.1699H20.7305C21.2805 11.1699 21.7305 11.62 21.7305 12.17V13.17C21.7305 13.72 21.2805 14.17 20.7305 14.17Z" stroke="#25252D" stroke-width="1.5" stroke-linecap="round" stroke-linejoin="round"/>
<path d="M10.52 3.56006C6.71 4.01006 3.75 7.24004 3.75 11.17" stroke="#25252D" stroke-width="1.5" stroke-linecap="round" stroke-linejoin="round"/>
<path d="M20.2495 11.17C20.2495 7.25004 17.3095 4.03006 13.5195 3.56006" stroke="#25252D" stroke-width="1.5" stroke-linecap="round" stroke-linejoin="round"/>
</svg>
