<svg width="24" height="24" viewBox="0 0 24 24" fill="none" xmlns="http://www.w3.org/2000/svg">
<path d="M7.59961 7.60156V3.90156C7.59961 3.10156 8.19961 2.40156 8.99961 2.20156C10.9996 1.90156 12.9996 1.90156 14.9996 2.20156C15.7996 2.30156 16.3996 3.00156 16.3996 3.90156V9.80156C16.3996 11.0016 15.3996 12.0016 14.1996 12.0016H9.79961C8.59961 12.0016 7.59961 13.0016 7.59961 14.2016V20.1016C7.59961 20.9016 8.19961 21.6016 8.99961 21.8016C10.9996 22.1016 12.9996 22.1016 14.9996 21.8016C15.7996 21.7016 16.3996 21.0016 16.3996 20.1016V16.4016" stroke="#25252D" stroke-width="1.5" stroke-linecap="round" stroke-linejoin="round"/>
<path d="M16.4 7.60156H20.1C20.9 7.60156 21.6 8.20156 21.8 9.00156C22.1 11.0016 22.1 13.0016 21.8 15.0016C21.7 15.8016 21 16.4016 20.1 16.4016H12" stroke="#25252D" stroke-width="1.5" stroke-linecap="round" stroke-linejoin="round"/>
<path d="M11.9996 7.60156H3.89961C3.09961 7.60156 2.39961 8.20156 2.19961 9.00156C1.89961 11.0016 1.89961 13.0016 2.19961 15.0016C2.29961 15.8016 2.99961 16.4016 3.89961 16.4016H7.59961" stroke="#25252D" stroke-width="1.5" stroke-linecap="round" stroke-linejoin="round"/>
<path d="M10 4.85156V4.85156" stroke="#25252D" stroke-width="1.5" stroke-linecap="round" stroke-linejoin="round"/>
<path d="M14 19.1484V19.1484" stroke="#25252D" stroke-width="1.5" stroke-linecap="round" stroke-linejoin="round"/>
</svg>
