<svg width="24" height="24" viewBox="0 0 24 24" fill="none" xmlns="http://www.w3.org/2000/svg">
<path d="M22.0008 11.65H16.2009C14.6709 11.65 13.6208 10.49 13.6208 9.07001V5.84998C13.6208 4.42998 14.6709 3.27002 16.2009 3.27002H19.4208C20.8408 3.27002 22.0008 4.42998 22.0008 5.84998V11.65Z" stroke="#25252D" stroke-width="1.5" stroke-linecap="round" stroke-linejoin="round"/>
<path d="M22.0005 11.65C22.0005 17.7 20.8705 18.7 17.4705 20.72" stroke="#25252D" stroke-width="1.5" stroke-linecap="round" stroke-linejoin="round"/>
<path d="M10.37 11.65H4.56999C3.03999 11.65 1.98999 10.49 1.98999 9.07001V5.84998C1.98999 4.42998 3.03999 3.27002 4.56999 3.27002H7.79999C9.21999 3.27002 10.38 4.42998 10.38 5.84998V11.65" stroke="#25252D" stroke-width="1.5" stroke-linecap="round" stroke-linejoin="round"/>
<path d="M10.3696 11.65C10.3696 17.7 9.2396 18.7 5.8396 20.72" stroke="#25252D" stroke-width="1.5" stroke-linecap="round" stroke-linejoin="round"/>
</svg>
