<svg width="24" height="24" viewBox="0 0 24 24" fill="none" xmlns="http://www.w3.org/2000/svg">
<path d="M17.0006 11.84H14.3206C13.6106 11.84 13.1306 11.3 13.1306 10.65V9.15997C13.1306 8.50997 13.6106 7.96997 14.3206 7.96997H15.8106C16.4606 7.96997 17.0006 8.50997 17.0006 9.15997V11.84Z" stroke="#25252D" stroke-width="1.5" stroke-linecap="round" stroke-linejoin="round"/>
<path d="M16.9999 11.8401C16.9999 14.6301 16.4799 15.1001 14.9099 16.0301" stroke="#25252D" stroke-width="1.5" stroke-linecap="round" stroke-linejoin="round"/>
<path d="M10.86 11.84H8.17998C7.46998 11.84 6.98999 11.3 6.98999 10.65V9.15997C6.98999 8.50997 7.46998 7.96997 8.17998 7.96997H9.66998C10.32 7.96997 10.86 8.50997 10.86 9.15997V11.84Z" stroke="#25252D" stroke-width="1.5" stroke-linecap="round" stroke-linejoin="round"/>
<path d="M10.8593 11.8401C10.8593 14.6301 10.3393 15.1001 8.76929 16.0301" stroke="#25252D" stroke-width="1.5" stroke-linecap="round" stroke-linejoin="round"/>
<path d="M12 22C17.5228 22 22 17.5228 22 12C22 6.47715 17.5228 2 12 2C6.47715 2 2 6.47715 2 12C2 17.5228 6.47715 22 12 22Z" stroke="#25252D" stroke-width="1.5" stroke-linecap="round" stroke-linejoin="round"/>
</svg>
