<svg width="24" height="24" viewBox="0 0 24 24" fill="none" xmlns="http://www.w3.org/2000/svg">
<path d="M16.9609 6.16992C18.9609 7.55992 20.3409 9.76992 20.6209 12.3199" stroke="#25252D" stroke-width="1.5" stroke-linecap="round" stroke-linejoin="round"/>
<path d="M3.48999 12.3707C3.74999 9.8307 5.10999 7.6207 7.08999 6.2207" stroke="#25252D" stroke-width="1.5" stroke-linecap="round" stroke-linejoin="round"/>
<path d="M8.18945 20.9395C9.34945 21.5295 10.6695 21.8595 12.0595 21.8595C13.3995 21.8595 14.6595 21.5595 15.7895 21.0095" stroke="#25252D" stroke-width="1.5" stroke-linecap="round" stroke-linejoin="round"/>
<path d="M12.0593 7.70062C13.5946 7.70062 14.8393 6.45598 14.8393 4.92062C14.8393 3.38527 13.5946 2.14062 12.0593 2.14062C10.5239 2.14062 9.2793 3.38527 9.2793 4.92062C9.2793 6.45598 10.5239 7.70062 12.0593 7.70062Z" stroke="#25252D" stroke-width="1.5" stroke-linecap="round" stroke-linejoin="round"/>
<path d="M4.83078 19.9194C6.36613 19.9194 7.61078 18.6747 7.61078 17.1394C7.61078 15.604 6.36613 14.3594 4.83078 14.3594C3.29543 14.3594 2.05078 15.604 2.05078 17.1394C2.05078 18.6747 3.29543 19.9194 4.83078 19.9194Z" stroke="#25252D" stroke-width="1.5" stroke-linecap="round" stroke-linejoin="round"/>
<path d="M19.1706 19.9194C20.706 19.9194 21.9506 18.6747 21.9506 17.1394C21.9506 15.604 20.706 14.3594 19.1706 14.3594C17.6353 14.3594 16.3906 15.604 16.3906 17.1394C16.3906 18.6747 17.6353 19.9194 19.1706 19.9194Z" stroke="#25252D" stroke-width="1.5" stroke-linecap="round" stroke-linejoin="round"/>
</svg>
