<svg width="24" height="24" viewBox="0 0 24 24" fill="none" xmlns="http://www.w3.org/2000/svg">
<path d="M14.4996 2.30078C13.4996 2.30078 12.5996 3.10078 12.5996 4.20078V8.80078C12.5996 9.80078 13.3996 10.7008 14.4996 10.7008C15.4996 10.7008 16.3996 9.90078 16.3996 8.80078V4.10078C16.3996 3.10078 15.5996 2.30078 14.4996 2.30078Z" stroke="#25252D" stroke-width="1.5" stroke-miterlimit="10" stroke-linecap="round" stroke-linejoin="round"/>
<path d="M18.5996 10.5984H20.1996C21.0996 10.5984 21.7996 9.89844 21.7996 8.99844C21.7996 8.09844 21.0996 7.39844 20.1996 7.39844C19.2996 7.39844 18.5996 8.09844 18.5996 8.99844V10.5984Z" stroke="#25252D" stroke-width="1.5" stroke-miterlimit="10" stroke-linecap="round" stroke-linejoin="round"/>
<path d="M2 9.20078C2 10.2008 2.8 11.1008 3.9 11.1008H8.5C9.5 11.1008 10.4 10.3008 10.4 9.20078C10.4 8.20078 9.6 7.30078 8.5 7.30078H3.9C2.8 7.40078 2 8.20078 2 9.20078Z" stroke="#25252D" stroke-width="1.5" stroke-miterlimit="10" stroke-linecap="round" stroke-linejoin="round"/>
<path d="M10.3992 5.1V3.6C10.3992 2.7 9.69922 2 8.79922 2C7.89922 2 7.19922 2.7 7.19922 3.6C7.19922 4.5 7.89922 5.2 8.79922 5.2H10.3992V5.1Z" stroke="#25252D" stroke-width="1.5" stroke-miterlimit="10" stroke-linecap="round" stroke-linejoin="round"/>
<path d="M9.4 21.7984C10.4 21.7984 11.3 20.9984 11.3 19.8984V15.2984C11.3 14.2984 10.5 13.3984 9.4 13.3984C8.4 13.3984 7.5 14.1984 7.5 15.2984V19.8984C7.6 20.8984 8.4 21.7984 9.4 21.7984Z" stroke="#25252D" stroke-width="1.5" stroke-miterlimit="10" stroke-linecap="round" stroke-linejoin="round"/>
<path d="M5.39922 13.3984H3.79922C2.89922 13.3984 2.19922 14.0984 2.19922 14.9984C2.19922 15.8984 2.89922 16.5984 3.79922 16.5984C4.69922 16.5984 5.39922 15.8984 5.39922 14.9984V13.3984Z" stroke="#25252D" stroke-width="1.5" stroke-miterlimit="10" stroke-linecap="round" stroke-linejoin="round"/>
<path d="M21.9996 14.7984C21.9996 13.7984 21.1996 12.8984 20.0996 12.8984H15.4996C14.4996 12.8984 13.5996 13.6984 13.5996 14.7984C13.5996 15.7984 14.3996 16.6984 15.4996 16.6984H20.0996C21.0996 16.6984 21.9996 15.7984 21.9996 14.7984Z" stroke="#25252D" stroke-width="1.5" stroke-miterlimit="10" stroke-linecap="round" stroke-linejoin="round"/>
<path d="M13.5996 18.8008V20.4008C13.5996 21.3008 14.2996 22.0008 15.1996 22.0008C16.0996 22.0008 16.7996 21.3008 16.7996 20.4008C16.7996 19.5008 16.0996 18.8008 15.1996 18.8008H13.5996Z" stroke="#25252D" stroke-width="1.5" stroke-miterlimit="10" stroke-linecap="round" stroke-linejoin="round"/>
</svg>
