<svg width="24" height="24" viewBox="0 0 24 24" fill="none" xmlns="http://www.w3.org/2000/svg">
<path fill-rule="evenodd" clip-rule="evenodd" d="M17.2995 15.2992C16.9995 15.4992 16.7995 15.4992 16.5995 15.5992C16.3995 15.5992 16.2995 15.6992 16.1995 15.7992C15.9995 15.7992 15.9995 15.9992 15.9995 16.0992C15.9995 16.1992 15.9995 16.2992 15.8995 16.3992C15.7995 16.4992 15.5995 16.4992 15.3995 16.4992C15.0995 16.4992 14.6995 16.4992 14.2995 16.6992C14.0995 16.7992 13.8995 16.8992 13.6995 16.9992C13.2995 17.2992 12.8995 17.4992 12.0995 17.4992C11.2995 17.4992 10.8995 17.1992 10.4995 16.9992C10.2995 16.8992 10.0995 16.6992 9.89946 16.6992C9.49946 16.5992 9.09946 16.4992 8.79946 16.4992C8.59946 16.4992 8.39946 16.4992 8.29946 16.3992C7.99946 16.2992 7.99946 16.1992 7.99946 16.0992C7.99946 15.9992 7.99946 15.7992 7.79946 15.7992C7.69946 15.6992 7.49946 15.6992 7.39946 15.5992C7.19946 15.4992 6.99946 15.4992 6.69946 15.2992C6.39946 15.0992 6.59946 14.9992 6.69946 14.8992C8.59946 13.9992 8.89946 12.4992 8.89946 12.3992C8.89946 12.2992 8.89946 12.1992 8.79946 12.0992C8.69946 11.9992 8.39946 11.7992 8.09946 11.6992C7.99946 11.5992 7.89946 11.5992 7.79946 11.4992C7.49946 11.2992 7.39946 11.0992 7.49946 10.8992C7.59946 10.6992 7.69946 10.6992 7.89946 10.6992C7.99946 10.6992 7.99946 10.6992 8.09946 10.6992C8.29946 10.6992 8.49946 10.7992 8.59946 10.8992C8.69946 10.8992 8.79946 10.9992 8.89946 10.9992C8.89946 10.9992 8.89946 10.9992 8.99946 10.9992C9.09946 10.9992 9.09946 10.9992 9.09946 10.7992V10.6992C9.09946 10.3992 8.99946 9.69922 9.09946 9.19922C9.19946 8.39922 9.39946 7.89922 9.79946 7.59922C9.99946 7.39922 10.6995 6.69922 12.0995 6.69922C13.4995 6.69922 14.1995 7.49922 14.3995 7.59922C14.6995 7.99922 14.9995 8.39922 15.0995 9.19922C15.1995 9.79922 15.0995 10.3992 15.0995 10.7992C15.0995 10.8992 15.0995 10.9992 15.1995 10.9992C15.1995 10.9992 15.1995 10.9992 15.2995 10.9992C15.3995 10.9992 15.4995 10.8992 15.5995 10.8992C15.7995 10.7992 15.8995 10.7992 16.0995 10.6992C16.0995 10.6992 16.1995 10.6992 16.2995 10.6992C16.4995 10.6992 16.5995 10.7992 16.6995 10.8992C16.7995 11.0992 16.6995 11.2992 16.3995 11.4992C16.2995 11.4992 16.1995 11.5992 16.0995 11.6992C15.8995 11.8992 15.4995 12.0992 15.3995 12.0992C15.2995 12.1992 15.2995 12.2992 15.2995 12.3992C15.2995 12.4992 15.5995 13.8992 17.4995 14.8992C17.4995 14.9992 17.6995 15.0992 17.2995 15.2992Z" stroke="#25252D" stroke-width="1.5" stroke-miterlimit="10" stroke-linejoin="round"/>
<path d="M12 22C17.5228 22 22 17.5228 22 12C22 6.47715 17.5228 2 12 2C6.47715 2 2 6.47715 2 12C2 17.5228 6.47715 22 12 22Z" stroke="#25252D" stroke-width="1.5" stroke-miterlimit="10" stroke-linejoin="round"/>
</svg>
