<svg width="24" height="24" viewBox="0 0 24 24" fill="none" xmlns="http://www.w3.org/2000/svg">
<path d="M10.0495 2.53126L4.02953 6.46126C2.09953 7.72126 2.09953 10.5413 4.02953 11.8013L10.0495 15.7313C11.1295 16.4413 12.9095 16.4413 13.9895 15.7313L19.9795 11.8013C21.8995 10.5413 21.8995 7.73126 19.9795 6.47126L13.9895 2.54126C12.9095 1.82126 11.1295 1.82126 10.0495 2.53126Z" stroke="#25252D" stroke-width="1.5" stroke-linecap="round" stroke-linejoin="round"/>
<path d="M5.62914 13.0801L5.61914 17.7701C5.61914 19.0401 6.59914 20.4001 7.79914 20.8001L10.9891 21.8601C11.5391 22.0401 12.4491 22.0401 13.0091 21.8601L16.1991 20.8001C17.3991 20.4001 18.3791 19.0401 18.3791 17.7701V13.1301" stroke="#25252D" stroke-width="1.5" stroke-linecap="round" stroke-linejoin="round"/>
<path d="M21.4004 15V9" stroke="#25252D" stroke-width="1.5" stroke-linecap="round" stroke-linejoin="round"/>
</svg>
