<svg width="24" height="24" viewBox="0 0 24 24" fill="none" xmlns="http://www.w3.org/2000/svg">
<path d="M11.3004 13.9992C13.1782 13.9992 14.7004 12.477 14.7004 10.5992C14.7004 8.72145 13.1782 7.19922 11.3004 7.19922C9.42262 7.19922 7.90039 8.72145 7.90039 10.5992C7.90039 12.477 9.42262 13.9992 11.3004 13.9992Z" stroke="#25252D" stroke-width="1.5" stroke-miterlimit="10"/>
<path d="M15.0996 14.8008L12.0996 17.8008" stroke="#25252D" stroke-width="1.5" stroke-miterlimit="10" stroke-linecap="round" stroke-linejoin="round"/>
<path d="M12 22C17.5228 22 22 17.5228 22 12C22 6.47715 17.5228 2 12 2C6.47715 2 2 6.47715 2 12C2 17.5228 6.47715 22 12 22Z" stroke="#25252D" stroke-width="1.5" stroke-miterlimit="10" stroke-linecap="round" stroke-linejoin="round"/>
<path d="M16.5 7.3125V7.3125" stroke="#25252D" stroke-width="2" stroke-linecap="round" stroke-linejoin="round"/>
</svg>
