<svg width="24" height="24" viewBox="0 0 24 24" fill="none" xmlns="http://www.w3.org/2000/svg">
<path d="M16.9959 4H6.99586C3.16586 4 2.09586 4.92 2.00586 8.5C3.93586 8.5 5.49586 10.07 5.49586 12C5.49586 13.93 3.93586 15.49 2.00586 15.5C2.09586 19.08 3.16586 20 6.99586 20H16.9959C20.9959 20 21.9959 19 21.9959 15V9C21.9959 5 20.9959 4 16.9959 4Z" stroke="#25252D" stroke-width="1.5" stroke-linecap="round" stroke-linejoin="round"/>
<path d="M8.99414 4V7.5" stroke="#25252D" stroke-width="1.5" stroke-linecap="round" stroke-linejoin="round"/>
<path d="M8.99414 16.5V20" stroke="#25252D" stroke-width="1.5" stroke-linecap="round" stroke-linejoin="round"/>
<path d="M15.024 9.33003L15.644 10.58C15.704 10.7 15.824 10.79 15.954 10.81L17.334 11.01C17.674 11.06 17.814 11.48 17.564 11.72L16.564 12.69C16.464 12.78 16.424 12.92 16.444 13.06L16.684 14.43C16.744 14.77 16.384 15.03 16.084 14.87L14.854 14.22C14.734 14.16 14.584 14.16 14.464 14.22L13.234 14.87C12.924 15.03 12.574 14.77 12.634 14.43L12.874 13.06C12.894 12.92 12.854 12.79 12.754 12.69L11.764 11.72C11.514 11.48 11.654 11.06 11.994 11.01L13.374 10.81C13.514 10.79 13.624 10.71 13.684 10.58L14.294 9.33003C14.434 9.02003 14.874 9.02003 15.024 9.33003Z" stroke="#25252D" stroke-width="1.5" stroke-linecap="round" stroke-linejoin="round"/>
</svg>
