<svg width="24" height="24" viewBox="0 0 24 24" fill="none" xmlns="http://www.w3.org/2000/svg">
<path d="M15 22H9C4 22 2 20 2 15V9C2 4 4 2 9 2H15C20 2 22 4 22 9V15C22 20 20 22 15 22Z" stroke="#25252D" stroke-width="1.5" stroke-linecap="round" stroke-linejoin="round"/>
<path d="M9.55086 17.7191H7.10086C6.43086 17.7191 5.88086 17.1691 5.88086 16.4991V7.50906C5.88086 6.83906 6.43086 6.28906 7.10086 6.28906H9.55086C10.2209 6.28906 10.7709 6.83906 10.7709 7.50906V16.4891C10.7709 17.1691 10.2209 17.7191 9.55086 17.7191Z" stroke="#25252D" stroke-width="1.5" stroke-miterlimit="10"/>
<path d="M17.1409 13.6291H14.2009C13.6609 13.6291 13.2209 13.1891 13.2209 12.6491V7.26906C13.2209 6.72906 13.6609 6.28906 14.2009 6.28906H17.1409C17.6809 6.28906 18.1209 6.72906 18.1209 7.26906V12.6591C18.1309 13.1891 17.6809 13.6291 17.1409 13.6291Z" stroke="#25252D" stroke-width="1.5" stroke-miterlimit="10"/>
</svg>
