<svg width="24" height="24" viewBox="0 0 24 24" fill="none" xmlns="http://www.w3.org/2000/svg">
<path d="M9 22H15C20 22 22 20 22 15V9C22 4 20 2 15 2H9C4 2 2 4 2 9V15C2 20 4 22 9 22Z" stroke="#25252D" stroke-width="1.5" stroke-linecap="round" stroke-linejoin="round"/>
<path d="M9.09961 11.9995V10.5195C9.09961 8.6095 10.4496 7.8395 12.0996 8.7895L13.3796 9.5295L14.6596 10.2695C16.3096 11.2195 16.3096 12.7795 14.6596 13.7295L13.3796 14.4695L12.0996 15.2095C10.4496 16.1595 9.09961 15.3795 9.09961 13.4795V11.9995Z" stroke="#25252D" stroke-width="1.5" stroke-miterlimit="10" stroke-linecap="round" stroke-linejoin="round"/>
</svg>
