<svg width="24" height="24" viewBox="0 0 24 24" fill="none" xmlns="http://www.w3.org/2000/svg">
<path d="M21.0799 8.58003V15.42C21.0799 16.54 20.4799 17.58 19.5099 18.15L13.5699 21.58C12.5999 22.14 11.3999 22.14 10.4199 21.58L4.47992 18.15C3.50992 17.59 2.90991 16.55 2.90991 15.42V8.58003C2.90991 7.46003 3.50992 6.41999 4.47992 5.84999L10.4199 2.42C11.3899 1.86 12.5899 1.86 13.5699 2.42L19.5099 5.84999C20.4799 6.41999 21.0799 7.45003 21.0799 8.58003Z" stroke="#25252D" stroke-width="1.5" stroke-linecap="round" stroke-linejoin="round"/>
<path d="M9.75 12.0009V10.8009C9.75 9.26087 10.84 8.6309 12.17 9.4009L13.21 10.0009L14.25 10.6009C15.58 11.3709 15.58 12.6309 14.25 13.4009L13.21 14.0009L12.17 14.6009C10.84 15.3709 9.75 14.7409 9.75 13.2009V12.0009Z" stroke="#25252D" stroke-width="1.5" stroke-miterlimit="10" stroke-linecap="round" stroke-linejoin="round"/>
</svg>
