<svg width="24" height="24" viewBox="0 0 24 24" fill="none" xmlns="http://www.w3.org/2000/svg">
<path d="M15 8.37174V7.41174C15 4.43174 12.93 3.29174 10.41 4.87174L7.49 6.70174C7.17 6.89174 6.8 7.00174 6.43 7.00174H5C3 7.00174 2 8.00174 2 10.0017V14.0017C2 16.0017 3 17.0017 5 17.0017H7" stroke="#25252D" stroke-width="1.5" stroke-linecap="round" stroke-linejoin="round"/>
<path d="M10.4099 19.1292C12.9299 20.7092 14.9999 19.5592 14.9999 16.5892V12.9492" stroke="#25252D" stroke-width="1.5" stroke-linecap="round" stroke-linejoin="round"/>
<path d="M18.81 9.42188C19.71 11.5719 19.44 14.0819 18 16.0019" stroke="#25252D" stroke-width="1.5" stroke-linecap="round" stroke-linejoin="round"/>
<path d="M21.1501 7.80078C22.6201 11.2908 22.1801 15.3708 19.8301 18.5008" stroke="#25252D" stroke-width="1.5" stroke-linecap="round" stroke-linejoin="round"/>
<path d="M22 2L2 22" stroke="#25252D" stroke-width="1.5" stroke-linecap="round" stroke-linejoin="round"/>
</svg>
