<svg width="24" height="24" viewBox="0 0 24 24" fill="none" xmlns="http://www.w3.org/2000/svg">
<path d="M5.50092 2H4.10092C3.10092 2 2.60092 3.1 3.30092 3.8L9.00092 9.5C10.6009 11.1 13.3009 11.1 14.9009 9.5L20.6009 3.8C21.4009 3.1 20.9009 2 19.9009 2H18.5009C17.7009 2 16.9009 2.3 16.3009 2.9L12.7009 6.5C12.3009 6.9 11.6009 6.9 11.2009 6.5L7.70092 2.9C7.10092 2.3 6.30092 2 5.50092 2Z" stroke="#25252D" stroke-width="1.5" stroke-miterlimit="10" stroke-linecap="round" stroke-linejoin="round"/>
<path d="M5.50004 22.0008H4.10004C3.20004 22.0008 2.70004 20.9008 3.40004 20.2008L9.00004 14.5008C10.6 12.9008 13.3 12.9008 14.9 14.5008L20.6 20.2008C21.3 20.9008 20.8 22.0008 19.9 22.0008H18.5C17.7 22.0008 16.9 21.7008 16.3 21.1008L12.7 17.5008C12.3 17.1008 11.6 17.1008 11.2 17.5008L7.60004 21.1008C7.10004 21.6008 6.30004 22.0008 5.50004 22.0008Z" stroke="#25252D" stroke-width="1.5" stroke-miterlimit="10" stroke-linecap="round" stroke-linejoin="round"/>
</svg>
