<svg width="401" height="218" viewBox="0 0 401 218" fill="none" xmlns="http://www.w3.org/2000/svg">
<path fill-rule="evenodd" clip-rule="evenodd" d="M222.674 193.518C195.68 197.942 170.634 186.633 147.811 171.508C120.12 153.158 82.2345 134.753 83.8912 101.55C85.5354 68.5997 126.153 56.4015 154.4 39.4535C176.706 26.0705 199.326 12.9078 225.037 16.8648C253.933 21.312 282.424 35.1038 295.698 61.2003C309.502 88.3372 306.403 121.285 291.702 147.924C277.673 173.345 251.297 188.827 222.674 193.518Z" fill="#E94C89" fill-opacity="0.18"/>
<path d="M0.25 194.137H400.25" stroke="black" stroke-width="0.5" stroke-linecap="round"/>
<rect x="75.4141" y="26.1367" width="45.5522" height="81.0746" rx="22.7761" fill="#E94C89"/>
<circle cx="132.668" cy="98.8534" r="30.5075" fill="#B0FFCD"/>
<path d="M97.772 53.9275V193.927" stroke="black" stroke-width="0.8" stroke-linecap="round"/>
<path d="M132.668 87.5674L132.668 194.135" stroke="black" stroke-width="0.8" stroke-linecap="round"/>
<path d="M132.459 113.689L122.011 106.375" stroke="black" stroke-width="0.8" stroke-linecap="round"/>
<path d="M132.459 100.526L139.981 93.4214" stroke="black" stroke-width="0.8" stroke-linecap="round"/>
<path d="M159.867 90.295C160.069 89.3839 160.778 88.3716 160.778 88.3716V89.1814C160.778 98.697 164.422 101.228 164.422 101.228C171.913 107.706 177.943 98.6813 177.943 98.6813C177.943 98.6813 186.389 110.035 191.045 112.97C191.045 112.97 184.567 120.158 183.656 128.863C183.656 128.863 177.962 124.51 177.355 122.486V119.738C177.004 141.375 177.987 144.25 177.987 144.25C178.392 150.526 181.125 156.296 181.125 156.296L167.459 160.143C156.121 161.054 139.216 171.177 139.216 171.177C137.698 165.103 141.139 152.146 141.139 152.146C141.038 150.02 159.867 90.295 159.867 90.295Z" fill="white"/>
<path d="M177.943 98.6813C176.425 139.679 177.987 144.25 177.987 144.25C178.392 150.526 181.125 156.296 181.125 156.296L167.459 160.143C156.121 161.054 139.216 171.177 139.216 171.177C137.698 165.103 141.139 152.146 141.139 152.146C141.038 150.02 159.867 90.295 159.867 90.295C160.069 89.3839 160.778 88.3716 160.778 88.3716V89.1814C160.778 98.697 164.422 101.228 164.422 101.228C171.913 107.706 177.943 98.6813 177.943 98.6813ZM177.943 98.6813C177.943 98.6813 186.389 110.035 191.045 112.97C191.045 112.97 184.567 120.158 183.656 128.863C183.656 128.863 177.962 124.51 177.355 122.486V110.684L177.943 98.6813Z" stroke="black" stroke-width="0.202458"/>
<path d="M160.778 88.3748L161.487 80.5801L166.143 83.111L168.168 71.0647L166.65 70.4573C160.475 67.6229 165.131 62.6627 165.131 62.6627C167.054 60.6381 169.282 63.1688 169.282 63.1688H169.585C172.622 60.9418 171.61 55.0705 171.61 55.0705L173.027 58.0062L172.116 53.957L173.533 57.3988L194.892 55.5766C202.788 80.074 179.911 85.3379 179.911 85.3379C177.279 89.8932 177.886 98.8014 177.886 98.8014C173.128 106.09 165.14 104.254 162.402 99.2206C160.044 94.8856 160.778 88.3748 160.778 88.3748Z" fill="#FFBFD9" stroke="black" stroke-width="0.202458"/>
<path d="M167.56 63.0651C167.56 63.0651 165.914 63.2143 164.928 64.3811M164.22 67.1143C164.068 66.3387 164.418 64.9849 164.928 64.3811M164.928 64.3811L167.155 66.102" stroke="black" stroke-width="0.404916" stroke-linecap="round"/>
<path d="M167.56 39.9879L166.852 40.494C166.852 40.494 160.602 45.0492 157.438 48.7948C154.288 52.5223 151.161 59.0189 151.161 59.0189L153.692 61.246C153.692 61.246 155.109 55.7796 159.968 51.0218C164.827 46.2641 169.585 43.2272 169.585 43.2272L167.56 39.9879Z" fill="white" stroke="black" stroke-width="0.202458"/>
<path d="M155.415 25.1574C162.406 27.7462 167.054 40.2898 167.054 40.2898C167.054 40.2898 160.171 45.25 156.731 49.5536C153.186 54.7656 151.062 58.8666 151.062 58.8666C145.089 60.1826 144.074 58.9735 140.332 56.9433C133.556 53.2673 130.455 46.9767 131.423 39.3295C132.79 28.5339 145.21 21.3789 155.415 25.1574Z" fill="#FFECCD" stroke="black" stroke-width="0.202458"/>
<path d="M169.585 43.2256C188.211 38.974 194.893 55.5756 194.893 55.5756L173.432 57.2966L172.116 53.956L172.926 57.9039L171.509 55.1708C172.622 61.5482 169.484 63.1678 169.484 63.1678C168.269 62.0543 167.358 61.9531 167.358 61.9531C164.22 61.447 163.41 66.4072 163.41 66.4072C163.613 69.849 168.168 71.0637 168.168 71.0637L166.042 83.11L161.487 80.5792C152.174 73.9994 153.692 61.3457 153.692 61.3457C156.223 51.4253 169.585 43.2256 169.585 43.2256Z" fill="#FFECCD" stroke="black" stroke-width="0.202458"/>
<path d="M180.012 85.3372C180.012 85.3372 178.189 86.0459 175.659 85.4385" stroke="black" stroke-width="0.202458" stroke-linecap="round"/>
<path d="M216.252 142.331C204.509 140.812 191.45 151.644 191.45 151.644L207.85 156.807C216.252 158.123 217.688 164.138 217.688 164.138C224.876 163.936 257.452 170.472 257.452 170.472C224.35 140.104 216.252 142.331 216.252 142.331Z" fill="black" stroke="black" stroke-width="0.202458"/>
<path d="M203.902 143.949L183.959 127.549C183.959 127.549 184.776 123.44 185.883 120.97C186.99 118.499 189.628 114.896 189.628 114.896C191.552 115.098 218.479 142.329 218.479 142.329C212.304 140.81 203.902 143.949 203.902 143.949Z" fill="#FFBFD9" stroke="black" stroke-width="0.202458"/>
<path d="M286.194 183.356L282.962 180.696L276.179 194.159H286.729L286.194 183.356Z" fill="#F3A3C3" stroke="black" stroke-width="0.202458"/>
<path d="M138.406 171.887C138.406 171.887 138.957 171.389 139.317 171.077C158.348 160.55 167.864 160.145 167.864 160.145C170.901 161.258 194.487 161.258 194.487 161.258C203.294 161.056 253.605 169.559 253.605 169.559C266.765 172.191 283.366 179.783 283.366 179.783L275.977 194.562L257.148 194.765C223.742 193.145 201.674 195.474 201.674 195.474C177.177 196.891 173.128 195.98 173.128 195.98C142.354 195.474 138.406 171.887 138.406 171.887Z" fill="black" stroke="black" stroke-width="0.202458"/>
<circle cx="178.088" cy="64.0789" r="6.37743" fill="white" fill-opacity="0.66" stroke="black" stroke-width="0.202458"/>
<circle cx="192.463" cy="62.2573" r="6.37743" fill="white" fill-opacity="0.66" stroke="black" stroke-width="0.202458"/>
<path d="M183.959 61.6511H186.085V62.9671H184.364L183.959 61.6511Z" stroke="black" stroke-width="0.202458"/>
<path d="M170.091 62.7632H171.812L171.711 64.2816H169.889L168.876 63.3706L170.091 62.7632Z" stroke="black" stroke-width="0.202458"/>
<path d="M186.849 67.7297C187.096 67.7634 187.335 67.9075 187.538 68.2073V68.2092L187.54 68.2102C187.541 68.2114 187.541 68.2138 187.542 68.2151C187.544 68.2182 187.547 68.2228 187.55 68.2278C187.556 68.2389 187.565 68.255 187.574 68.2747C187.593 68.3147 187.615 68.3731 187.633 68.4475C187.669 68.5982 187.685 68.8166 187.621 69.095C187.492 69.6525 187.04 70.4431 185.782 71.4329L185.701 71.3313C184.388 70.5367 183.854 69.8322 183.657 69.3079C183.557 69.0404 183.545 68.8222 183.561 68.6682C183.568 68.5917 183.584 68.5307 183.597 68.4885C183.603 68.4677 183.61 68.4505 183.614 68.4387C183.617 68.4333 183.619 68.4285 183.62 68.4251C183.621 68.4235 183.622 68.4213 183.622 68.4202L183.623 68.4192V68.4172C183.785 68.093 184.003 67.9186 184.244 67.8528C184.481 67.7883 184.726 67.8326 184.939 67.9124C185.152 67.9925 185.344 68.1126 185.481 68.2102C185.53 68.2458 185.573 68.2802 185.607 68.3079C185.627 68.2888 185.647 68.2676 185.67 68.2463C185.793 68.1315 185.967 67.9877 186.168 67.8801C186.368 67.7731 186.605 67.6969 186.849 67.7297ZM186.821 67.9299C186.637 67.9051 186.444 67.9616 186.264 68.0579C186.084 68.154 185.923 68.2856 185.808 68.3938C185.75 68.4476 185.704 68.4956 185.673 68.5295C185.657 68.5463 185.645 68.5595 185.637 68.5686C185.633 68.5729 185.63 68.5771 185.628 68.5794C185.627 68.5803 185.626 68.5818 185.626 68.5823L185.569 68.5354L185.568 68.5374C185.568 68.5369 185.566 68.5354 185.565 68.5344C185.563 68.5325 185.56 68.5293 185.556 68.5256C185.547 68.5177 185.532 68.506 185.515 68.4915C185.479 68.462 185.427 68.4199 185.363 68.3743C185.234 68.2823 185.058 68.1735 184.867 68.1018C184.676 68.03 184.477 67.999 184.297 68.0481C184.121 68.0961 183.946 68.2256 183.805 68.5081L183.802 68.5149C183.799 68.5216 183.795 68.5333 183.79 68.5481C183.781 68.5786 183.769 68.6267 183.763 68.6887C183.75 68.8129 183.758 69.0002 183.847 69.2376C184.022 69.7032 184.514 70.3756 185.802 71.1555C186.926 70.2381 187.315 69.5257 187.425 69.0501C187.482 68.8034 187.464 68.6168 187.436 68.4954C187.421 68.4347 187.403 68.3877 187.39 68.3586C187.383 68.3449 187.378 68.3337 187.374 68.3274L187.37 68.3215C187.193 68.0602 187.002 67.9545 186.821 67.9299Z" fill="black"/>
<circle cx="192.564" cy="62.1797" r="0.809832" fill="black" stroke="black" stroke-width="0.202458"/>
<circle cx="180.416" cy="63.6541" r="0.809832" fill="black" stroke="black" stroke-width="0.202458"/>
<path d="M307.756 200.422L287.211 199.767L285.727 179.606L292.677 178.804C295.595 162.143 309.992 165.286 309.992 165.286L307.756 200.422Z" fill="#E94C89" stroke="black" stroke-width="0.202458"/>
<path d="M294.681 172.49C294.681 172.49 295.38 176.182 300.49 178.614" stroke="black" stroke-width="0.202458" stroke-linecap="round"/>
<path d="M297.643 168.633C297.643 168.633 298.691 173.594 304.945 175.518" stroke="black" stroke-width="0.202458" stroke-linecap="round"/>
<path d="M161.284 158.929C156.122 157.208 155.008 144.959 155.008 144.959C155.008 144.959 159.513 145.017 162.499 144.959C165.501 144.902 170.193 144.656 170.193 144.656L170.395 147.186C190.944 149.515 208.052 156.904 208.052 156.904C215.746 157.816 217.688 164.136 217.688 164.136C215.967 163.731 197.626 161.156 197.626 161.156C170.091 161.561 161.284 158.929 161.284 158.929Z" fill="#FFBFD9" stroke="black" stroke-width="0.202458"/>
<path d="M150.655 121.073C150.655 121.073 149.035 144.052 152.376 144.659C152.376 144.659 171.205 145.671 171.609 143.95C171.609 143.95 172.622 141.521 172.116 120.668" stroke="black" stroke-width="0.202458"/>
<path d="M187.503 54.4636C187.503 54.4636 190.81 53.5155 192.767 53.6538C194.723 53.7922 197.524 55.1722 197.524 55.1722" stroke="#9C9B98" stroke-width="0.809832" stroke-linecap="round"/>
<path d="M171.552 56.524C171.552 56.524 174.641 55.0101 176.592 54.8028C178.543 54.5955 181.542 55.4625 181.542 55.4625" stroke="#9C9B98" stroke-width="0.809832" stroke-linecap="round"/>
<path d="M186.824 67.8575C186.62 67.7809 186.454 67.8297 186.315 67.9337C186.172 68.0412 186.059 68.2072 185.981 68.3526C185.943 68.4242 185.914 68.4888 185.895 68.5352C185.886 68.5585 185.879 68.5773 185.874 68.5899C185.872 68.5959 185.87 68.6005 185.869 68.6036C185.868 68.6052 185.868 68.6068 185.868 68.6075H185.867L185.816 68.7608L185.702 68.6476L185.689 68.6349C185.68 68.6264 185.667 68.6142 185.649 68.5987C185.614 68.5676 185.564 68.5239 185.501 68.4757C185.374 68.3784 185.2 68.2639 185.011 68.1886C184.821 68.1131 184.623 68.0806 184.441 68.1329C184.263 68.1843 184.081 68.3222 183.93 68.6251L183.923 68.6397L183.911 68.6515C183.791 68.7712 183.774 68.9627 183.865 69.2218C183.955 69.4776 184.142 69.7689 184.375 70.046C184.607 70.322 184.881 70.5778 185.139 70.7638C185.267 70.8568 185.391 70.9309 185.501 70.9815C185.612 71.0327 185.704 71.0567 185.772 71.0567C185.912 71.0567 186.098 70.9616 186.309 70.7784C186.516 70.5992 186.73 70.3505 186.924 70.0772C187.117 69.8042 187.289 69.5099 187.412 69.2413C187.529 68.9846 187.596 68.7615 187.603 68.6065C187.294 68.1494 187.032 67.9359 186.824 67.8575Z" fill="white" stroke="black" stroke-width="0.2"/>
</svg>
