<svg width="196" height="187" viewBox="0 0 196 187" fill="none" xmlns="http://www.w3.org/2000/svg">
<path d="M28.7181 66.2595C28.9206 65.3484 29.6292 64.3362 29.6292 64.3362V65.146C29.6292 74.6615 33.2735 77.1922 33.2735 77.1922C40.7644 83.6709 46.7942 74.6458 46.7942 74.6458C46.7942 74.6458 55.2402 85.9992 59.8967 88.9348C59.8967 88.9348 53.418 96.1221 52.507 104.828C52.507 104.828 46.8135 100.475 46.2062 98.4503V95.7024C45.8556 117.34 46.8382 120.215 46.8382 120.215C47.2431 126.491 49.9762 132.261 49.9762 132.261L36.3103 136.108C24.9727 137.019 8.06737 147.142 8.06737 147.142C6.54893 141.068 9.99073 128.11 9.99073 128.11C9.8895 125.985 28.7181 66.2595 28.7181 66.2595Z" fill="white"/>
<path d="M46.7942 74.6458C45.2758 115.644 46.8381 120.215 46.8381 120.215C47.2431 126.491 49.9763 132.261 49.9763 132.261L36.3103 136.108C24.9727 137.019 8.06737 147.142 8.06737 147.142C6.54893 141.068 9.99073 128.11 9.99073 128.11C9.8895 125.985 28.7181 66.2595 28.7181 66.2595C28.9206 65.3484 29.6292 64.3362 29.6292 64.3362V65.146C29.6292 74.6615 33.2735 77.1922 33.2735 77.1922C40.7644 83.6709 46.7942 74.6458 46.7942 74.6458ZM46.7942 74.6458C46.7942 74.6458 55.2402 85.9992 59.8967 88.9348C59.8967 88.9348 53.418 96.1221 52.507 104.828C52.507 104.828 46.8135 100.475 46.2062 98.4503V86.649L46.7942 74.6458Z" stroke="black" stroke-width="0.202458"/>
<path d="M29.6295 64.3393L30.3381 56.5447L34.9946 59.0755L37.0192 47.0292L35.5008 46.4219C29.3258 43.5875 33.9823 38.6272 33.9823 38.6272C35.9057 36.6027 38.1327 39.1334 38.1327 39.1334H38.4364C41.4733 36.9063 40.461 31.0351 40.461 31.0351L41.8782 33.9707L40.9671 29.9215L42.3843 33.3633L63.7437 31.5411C71.6395 56.0385 48.7618 61.3025 48.7618 61.3025C46.1298 65.8578 46.7372 74.7659 46.7372 74.7659C41.9794 82.0544 33.9915 80.2186 31.2536 75.1852C28.8956 70.8501 29.6295 64.3393 29.6295 64.3393Z" fill="#FFBFD9" stroke="black" stroke-width="0.202458"/>
<path d="M36.4116 39.0297C36.4116 39.0297 34.765 39.1789 33.7796 40.3456M33.071 43.0788C32.9187 42.3033 33.2697 40.9495 33.7796 40.3456M33.7796 40.3456L36.0067 42.0665" stroke="black" stroke-width="0.404916" stroke-linecap="round"/>
<path d="M36.4117 15.9524L35.7031 16.4585C35.7031 16.4585 29.4533 21.0137 26.2888 24.7593C23.1395 28.4868 20.0126 34.9835 20.0126 34.9835L22.5433 37.2105C22.5433 37.2105 23.9605 31.7441 28.8195 26.9864C33.6785 22.2286 38.4363 19.1917 38.4363 19.1917L36.4117 15.9524Z" fill="white" stroke="black" stroke-width="0.202458"/>
<path d="M24.2659 1.12193C31.2576 3.71073 35.9055 16.2543 35.9055 16.2543C35.9055 16.2543 29.0219 21.2146 25.5818 25.5181C22.0371 30.7301 19.913 34.8312 19.913 34.8312C13.9405 36.1471 12.9247 34.938 9.18279 32.9078C2.40747 29.2318 -0.693546 22.9412 0.274636 15.294C1.64141 4.49842 14.0612 -2.65657 24.2659 1.12193Z" fill="black" stroke="black" stroke-width="0.202458"/>
<path d="M38.4365 19.1902C57.0626 14.9385 63.7437 31.5401 63.7437 31.5401L42.2831 33.2611L40.9671 29.9205L41.7769 33.8685L40.3597 31.1353C41.4732 37.5127 38.3351 39.1324 38.3351 39.1324C37.1204 38.0189 36.2093 37.9176 36.2093 37.9176C33.0712 37.4115 32.2614 42.3717 32.2614 42.3717C32.4638 45.8135 37.0192 47.0283 37.0192 47.0283L34.8933 59.0745L30.3381 56.5438C21.025 49.9639 22.5435 37.3103 22.5435 37.3103C25.0742 27.3898 38.4365 19.1902 38.4365 19.1902Z" fill="black" stroke="black" stroke-width="0.202458"/>
<path d="M48.8627 61.3018C48.8627 61.3018 47.0406 62.0104 44.5099 61.403" stroke="black" stroke-width="0.202458" stroke-linecap="round"/>
<path d="M85.1028 118.295C73.3602 116.777 60.3016 127.609 60.3016 127.609L76.7007 132.771C85.1028 134.087 86.5397 140.103 86.5397 140.103C93.7269 139.9 126.303 146.437 126.303 146.437C93.2011 116.068 85.1028 118.295 85.1028 118.295Z" fill="black" stroke="black" stroke-width="0.202458"/>
<path d="M72.7528 119.913L52.8107 103.514C52.8107 103.514 53.6271 99.4049 54.734 96.9341C55.8409 94.4634 58.4795 90.8604 58.4795 90.8604C60.4028 91.0628 87.3298 118.293 87.3298 118.293C81.1548 116.775 72.7528 119.913 72.7528 119.913Z" fill="#FFBFD9" stroke="black" stroke-width="0.202458"/>
<path d="M155.045 159.32L151.813 156.66L145.03 170.124H155.581L155.045 159.32Z" fill="#F3A3C3" stroke="black" stroke-width="0.202458"/>
<path d="M7.25745 147.852C7.25745 147.852 7.80846 147.353 8.16851 147.042C27.1996 136.514 36.7151 136.109 36.7151 136.109C39.752 137.223 63.3383 137.223 63.3383 137.223C72.1453 137.02 122.456 145.523 122.456 145.523C135.616 148.155 152.217 155.748 152.217 155.748L144.828 170.527L125.999 170.729C92.5935 169.11 70.5256 171.438 70.5256 171.438C46.0282 172.855 41.979 171.944 41.979 171.944C11.2054 171.438 7.25745 147.852 7.25745 147.852Z" fill="black" stroke="black" stroke-width="0.202458"/>
<circle cx="46.9396" cy="40.0434" r="6.37743" fill="white" fill-opacity="0.66" stroke="black" stroke-width="0.202458"/>
<circle cx="61.3141" cy="38.2218" r="6.37743" fill="white" fill-opacity="0.66" stroke="black" stroke-width="0.202458"/>
<path d="M52.8107 37.6156H54.9365V38.9316H53.2156L52.8107 37.6156Z" stroke="black" stroke-width="0.202458"/>
<path d="M38.9423 38.7277H40.6632L40.562 40.2462H38.7398L37.7275 39.3351L38.9423 38.7277Z" stroke="black" stroke-width="0.202458"/>
<path d="M55.7 43.6934C55.9477 43.7272 56.1863 43.8713 56.3895 44.171V44.1729L56.3905 44.1739C56.3911 44.175 56.3924 44.1771 56.3934 44.1788C56.3953 44.1819 56.3983 44.1864 56.4012 44.1915C56.4075 44.2025 56.4155 44.2185 56.4246 44.2383C56.4431 44.2784 56.4663 44.3364 56.4842 44.4112C56.52 44.5618 56.5367 44.7802 56.4725 45.0587C56.3436 45.6161 55.891 46.4068 54.6336 47.3965L54.5516 47.294C53.2387 46.4994 52.7052 45.7958 52.5086 45.2715C52.4083 45.0038 52.3963 44.7859 52.4119 44.6319C52.4198 44.5553 52.435 44.4943 52.4481 44.4522C52.4545 44.4314 52.4609 44.4141 52.4656 44.4024C52.4679 44.397 52.47 44.3921 52.4715 44.3887C52.4722 44.3871 52.473 44.3849 52.4735 44.3839L52.4744 44.3829V44.3809C52.6366 44.057 52.8542 43.8823 53.0955 43.8165C53.3323 43.7522 53.5773 43.7964 53.7899 43.876C54.0035 43.9562 54.1952 44.0763 54.3319 44.1739C54.3818 44.2096 54.4241 44.2439 54.4588 44.2715C54.478 44.2526 54.4988 44.2311 54.5213 44.21C54.644 44.0953 54.8183 43.9512 55.0194 43.8438C55.2197 43.7369 55.4568 43.6606 55.7 43.6934ZM55.6727 43.8936C55.488 43.8687 55.2954 43.9255 55.1151 44.0215C54.9353 44.1176 54.7747 44.2493 54.659 44.3575C54.6018 44.411 54.5557 44.4593 54.5242 44.4932C54.509 44.5097 54.4961 44.5232 54.4881 44.5323C54.4847 44.5362 54.4813 44.5398 54.4793 44.5421C54.4785 44.543 54.477 44.5451 54.4764 44.546L54.4207 44.4991L54.4197 44.501C54.4193 44.5006 54.4179 44.4991 54.4168 44.4981C54.4147 44.4962 54.4113 44.4931 54.4071 44.4893C54.398 44.4814 54.3837 44.4698 54.366 44.4551C54.3305 44.4256 54.2787 44.3837 54.2147 44.338C54.0858 44.2459 53.9095 44.1372 53.7186 44.0655C53.5271 43.9938 53.3282 43.9629 53.1483 44.0118C52.9725 44.0598 52.7974 44.1896 52.6561 44.4717L52.6531 44.4786C52.6505 44.4852 52.6461 44.4969 52.6414 44.5118C52.632 44.5422 52.6205 44.5903 52.6141 44.6524C52.6014 44.7766 52.609 44.9636 52.6981 45.2012C52.8729 45.6669 53.3651 46.339 54.6531 47.1192C55.7773 46.2018 56.1652 45.4893 56.2752 45.0137C56.3322 44.7666 56.3158 44.5795 56.2869 44.4581C56.2724 44.3974 56.2544 44.3513 56.241 44.3223C56.2345 44.3082 56.229 44.2973 56.2254 44.2911L56.2215 44.2852C56.0444 44.0239 55.8532 43.9182 55.6727 43.8936Z" fill="black"/>
<circle cx="61.4152" cy="38.1442" r="0.809832" fill="black" stroke="black" stroke-width="0.202458"/>
<circle cx="49.2676" cy="39.6187" r="0.809832" fill="black" stroke="black" stroke-width="0.202458"/>
<path d="M176.608 176.387L156.062 175.731L154.578 155.571L161.529 154.769C164.446 138.107 178.844 141.251 178.844 141.251L176.608 176.387Z" fill="#E94C89" stroke="black" stroke-width="0.202458"/>
<path d="M163.532 148.454C163.532 148.454 164.231 152.147 169.341 154.579" stroke="black" stroke-width="0.202458" stroke-linecap="round"/>
<path d="M166.494 144.598C166.494 144.598 167.542 149.559 173.796 151.483" stroke="black" stroke-width="0.202458" stroke-linecap="round"/>
<path d="M30.1356 134.894C24.9729 133.173 23.8594 120.924 23.8594 120.924C23.8594 120.924 28.3647 120.981 31.3503 120.924C34.3524 120.866 39.0437 120.62 39.0437 120.62L39.2462 123.151C59.7957 125.479 76.9034 132.869 76.9034 132.869C84.5968 133.78 86.5396 140.101 86.5396 140.101C84.8187 139.696 66.4768 137.121 66.4768 137.121C38.9425 137.526 30.1356 134.894 30.1356 134.894Z" fill="#FFBFD9" stroke="black" stroke-width="0.202458"/>
<path d="M19.5063 97.0371C19.5063 97.0371 17.8867 120.016 21.2272 120.623C21.2272 120.623 40.0558 121.636 40.4607 119.915C40.4607 119.915 41.473 117.485 40.9668 96.6322" stroke="black" stroke-width="0.202458"/>
<path d="M56.3539 30.4282C56.3539 30.4282 59.6609 29.48 61.6178 29.6184C63.5746 29.7567 66.3756 31.1368 66.3756 31.1368" stroke="white" stroke-width="0.809832" stroke-linecap="round"/>
<path d="M40.403 32.4886C40.403 32.4886 43.4923 30.9746 45.443 30.7673C47.3938 30.5601 50.3935 31.4271 50.3935 31.4271" stroke="white" stroke-width="0.809832" stroke-linecap="round"/>
<path d="M55.6753 43.8221C55.4716 43.7454 55.3055 43.7943 55.1665 43.8982C55.0229 44.0057 54.9102 44.1717 54.8325 44.3172C54.7943 44.3888 54.7657 44.4533 54.7466 44.4998C54.737 44.523 54.7297 44.5419 54.7251 44.5545C54.7229 44.5605 54.7213 44.5651 54.7202 44.5681C54.7197 44.5697 54.7195 44.5714 54.7192 44.5721H54.7183L54.6675 44.7254L54.5532 44.6121L54.5405 44.5994C54.5316 44.591 54.5179 44.5788 54.5005 44.5633C54.4656 44.5321 54.4149 44.4884 54.3521 44.4402C54.2251 44.343 54.0513 44.2284 53.8618 44.1531C53.6718 44.0777 53.4744 44.0451 53.2925 44.0974C53.1141 44.1489 52.9322 44.2868 52.7808 44.5896L52.7739 44.6043L52.7622 44.616C52.6425 44.7358 52.6254 44.9273 52.7163 45.1863C52.8061 45.4421 52.9927 45.7335 53.2261 46.0105C53.4586 46.2866 53.7322 46.5423 53.9897 46.7283C54.1185 46.8213 54.2417 46.8954 54.3521 46.9461C54.4636 46.9973 54.5551 47.0212 54.6235 47.0213C54.7631 47.0213 54.9494 46.9261 55.1606 46.743C55.3672 46.5638 55.581 46.3151 55.7749 46.0418C55.9687 45.7687 56.1405 45.4744 56.2632 45.2058C56.3804 44.9491 56.4474 44.7261 56.4546 44.5711C56.1453 44.114 55.8836 43.9005 55.6753 43.8221Z" fill="white" stroke="black" stroke-width="0.2"/>
</svg>
