<svg width="434" height="89" viewBox="0 0 434 89" fill="none" xmlns="http://www.w3.org/2000/svg">
<path d="M78.4729 6.87835C78.9799 6.7469 80.2802 6.84832 80.895 6.87521C85.8899 7.12341 90.7972 8.28448 95.3739 10.3009C110.984 17.1218 121.025 36.3974 116.904 53.5153C111.292 76.8286 88.6357 89.1524 65.9634 81.6925C63.9326 81.0243 61.6689 79.5961 59.6038 78.6802C54.3916 81.8003 48.4923 83.5905 42.4255 83.8931C31.9436 84.1762 22.5765 81.0415 14.7971 73.942C7.23148 67.0231 2.68551 57.4086 2.13842 47.1696C1.73076 37.0138 5.32838 27.1045 12.156 19.5769C21.985 8.66036 37.1914 4.33045 51.2947 8.43248C54.2287 9.30908 57.1571 10.8595 59.9544 11.8942C60.4222 12.0673 62.6324 10.5898 63.4856 10.2166C68.4787 8.03206 73.0598 7.10703 78.4729 6.87835ZM56.994 76.6553C46.06 67.7977 39.8794 55.9971 41.3402 41.6037C42.5795 29.3906 47.757 21.8633 56.9311 14.1685C51.5491 12.6043 46.6608 9.62152 40.1409 10.2549C28.5832 11.5323 21.0242 14.068 13.3209 23.3006C1.45946 37.5171 3.19381 60.5774 17.844 72.2833C22.8697 76.2455 28.8143 78.8741 35.1263 79.9262C36.2616 80.1248 37.3762 80.1311 38.4356 80.2882C43.5744 80.5846 47.4085 80.2019 52.3544 78.4563C53.441 78.0727 56.2218 76.8403 56.994 76.6553ZM83.944 80.0771C85.7613 79.9924 87.0042 79.5315 88.7048 79.1017C115.261 72.3911 123.254 38.3518 103.555 19.8368C97.6581 14.2949 86.7864 9.81778 78.7489 10.2181C78.5928 10.2265 78.4367 10.2397 78.2812 10.2575C72.0377 10.8997 69.0582 11.3639 63.4063 14.3024C65.1783 15.9957 67.9033 18.4817 69.4497 20.272C75.3904 27.1848 78.7636 35.9369 78.9994 45.0495C79.1489 51.5037 76.8516 59.4302 73.5526 64.9946C71.3241 68.7533 66.6149 74.1633 62.9138 76.5173C69.7596 79.9964 76.4105 80.8529 83.944 80.0771ZM70.127 63.9117C70.6405 63.0995 72.3402 60.8716 72.1207 59.9044C71.9485 59.1464 48.9039 36.4226 46.3392 34.0391C45.9247 35.2404 44.3805 39.5537 45.1974 40.2793C47.9216 42.6986 67.9364 64.0925 69.5088 64.6068C69.8448 64.3336 69.8994 64.2779 70.127 63.9117ZM59.1826 16.97C59.5074 18.828 67.7631 26.0492 69.4198 27.949C69.7623 28.3421 71.8987 30.5194 72.2448 30.7595C72.3779 30.8519 72.5152 30.9377 72.6565 31.0167C70.6695 27.5506 64.2099 16.0842 59.1826 16.97ZM47.1623 59.445C47.8712 60.5024 48.4402 61.4176 48.962 62.5765C50.7257 66.4938 55.694 72.8785 59.8557 74.1673C60.4645 74.1249 60.6474 73.9721 61.1465 73.646L61.4346 73.4004C61.3423 73.1315 47.9938 59.7586 47.6769 59.5967C47.5174 59.5151 47.3394 59.4685 47.1623 59.445ZM55.3121 19.7299C54.0844 21.0299 53.3086 21.9264 52.2209 23.3434C53.946 25.3205 55.8419 26.8479 57.6365 28.7173C62.5314 33.8162 67.3519 38.9911 72.7103 43.617C73.1874 44.0289 73.6924 44.4477 74.1244 44.9043C74.6708 45.5106 74.5998 45.6339 75.2616 45.7952C75.7048 45.2482 75.5466 44.3116 75.4868 43.6403C75.269 41.192 74.6445 37.618 72.5368 35.9954C68.5563 32.9306 65.1524 29.1496 61.5753 25.6362C59.8625 23.9537 57.2188 21.0332 55.3121 19.7299ZM44.2991 44.6189C44.1171 47.1636 44.2125 51.4515 46.0484 53.3631C49.6831 57.1473 53.724 60.8525 57.5433 64.4604C59.0722 65.9047 63.0483 70.1299 64.4675 71.1322L66.074 69.6207C66.661 68.7222 66.8449 68.434 67.2286 67.3995C60.9571 60.1975 51.4002 50.975 44.2991 44.6189ZM73.4217 55.7975L73.8034 56.0266C74.3625 55.1758 75.0091 52.1512 74.7803 51.1659C74.5492 50.1723 52.3249 28.1109 50.2253 26.2285C49.4774 27.3016 47.8044 29.1992 48.0519 30.5533C48.15 31.0902 71.1006 54.0149 73.4217 55.7975Z" fill="#D8008F"/>
<path d="M47.1623 59.4451C47.3394 59.4686 47.5174 59.5152 47.6769 59.5968C47.9938 59.7587 61.3423 73.1316 61.4346 73.4005L61.1465 73.6461C60.6474 73.9722 60.4645 74.125 59.8557 74.1674C55.694 72.8786 50.7257 66.4939 48.962 62.5766C48.4402 61.4177 47.8712 60.5025 47.1623 59.4451Z" fill="#450E30" fill-opacity="0.01"/>
<path d="M411.758 30.785C415.202 30.6657 415.613 35.9156 416.497 38.336C417.825 41.9746 418.711 45.9912 420.088 49.5777C420.73 45.0063 424.301 36.0476 425.89 31.4285C426.172 30.6076 430.329 30.7453 431.083 31.5044C430.822 33.6804 429.608 36.9046 428.93 39.041L424.984 51.5048C424.375 53.427 423.414 57.383 422.763 58.8657C422.274 59.4146 421.768 59.3955 421.032 59.4796C419.626 59.4868 417.469 59.5538 416.969 57.9971C415.223 52.5577 413.113 46.8327 411.616 41.3507C409.27 47.6392 407.724 52.6893 405.853 59.105C404.639 59.1232 401.279 59.2864 400.375 58.7157C400.398 56.9332 408.031 33.1083 408.948 31.9515C409.707 30.9935 410.626 30.9057 411.758 30.785Z" fill="#D8008F"/>
<path d="M262.963 30.9639C267.219 30.6689 273.623 30.7261 277.744 31.2322C283.989 31.9993 286.889 39.1254 284.389 44.5014C283.474 46.4669 281.97 47.4783 280.186 48.6289C282.076 51.1974 284.137 54.2077 285.68 56.9811C286.946 59.2629 281.896 59.8143 280.604 58.4323C278.195 55.8544 276.799 52.6369 274.646 49.7887C274.119 49.4655 273.06 49.5509 272.394 49.5505L268.214 49.5437C267.979 52.3142 268.687 55.2639 267.748 57.8559C267.176 59.4327 264.119 59.3388 262.98 58.7465C262.433 57.627 262.274 45.7468 262.988 44.7265C265.871 42.6911 273.083 44.4701 276.428 43.8134C280.733 42.9687 281.015 39.5051 277.75 37.103C273.201 36.5463 268.464 37.4376 263.965 36.8214C261.988 36.5508 262.562 32.2976 262.963 30.9639Z" fill="#D8008F"/>
<path d="M329.362 30.8322C333.137 30.6892 333.109 31.4527 333.558 34.9631C333.336 35.5369 332.919 36.3013 332.63 36.8675C330.512 36.9351 328.088 36.8732 325.946 36.8649C327.334 41.755 329.77 46.396 331.393 51.1647C332.046 48.775 333.758 45.4782 334.738 43.0197C335.522 41.057 338.569 31.4842 340.27 31.0568C347.45 29.2539 343.41 36.4044 341.929 39.4841L336.687 52.6455C335.872 54.73 335.243 57.4525 334.033 59.1314C332.427 59.3455 330.724 59.2323 329.12 59.0939C327.129 56.5657 320.39 38.0548 318.731 33.8737C318.527 33.3613 318.608 31.719 318.642 31.0634C321.495 30.7502 326.232 30.9119 329.362 30.8322Z" fill="#D8008F"/>
<path d="M205.334 30.9563C209.066 30.9188 212.756 30.8983 216.512 30.9377C220.789 30.9826 225.028 33.9847 225.924 38.276C226.551 41.2873 226.043 44.4759 223.994 46.8623C220.081 51.4215 214.344 49.7828 209.065 50.1371C208.996 52.4219 209.423 56.1838 208.808 58.405C208.697 58.8068 208.183 58.879 207.776 59.0075C206.526 59.1034 205.101 59.203 204.11 58.3859C203.477 57.1607 203.653 47.1486 204.046 45.5112C205.352 43.599 214.289 45.4814 216.893 44.6117C219.113 43.8698 219.382 43.8007 220.702 41.7734L220.753 39.1838C219.933 38.1372 219.571 37.7432 218.469 37.0202C215.467 36.7161 205.479 37.604 204.067 36.3964C203.712 35.6004 203.764 34.9758 203.746 34.1368C203.706 32.2534 203.76 31.9529 205.334 30.9563Z" fill="#D8008F"/>
<path d="M192.308 30.9573C193.703 30.8567 195.82 30.7215 196.773 31.9361C196.802 32.0957 196.837 32.2866 196.877 32.5087C194.952 36.2992 190.052 41.8641 187.785 45.2287C188.834 46.2333 189.821 47.5012 190.675 48.6851C193.104 52.052 196.386 55.0549 197.772 59.015C195.886 59.2 193.996 59.15 192.107 59.0809C190.43 57.8298 186.426 51.9251 184.924 49.9374L184.544 49.5725C183.426 49.6903 178.769 57.217 177.543 58.4867C176.527 59.5403 172.667 59.3994 171.76 58.6033C171.633 58.2161 171.528 57.8044 171.597 57.3958C171.808 56.1452 187.602 35.9227 189.547 33.6375C190.396 32.6407 191.243 31.7259 192.308 30.9573Z" fill="#D8008F"/>
<path d="M300.958 31.008C304.357 30.6749 309.801 30.752 313.252 31.1309C314.413 31.2583 314.148 35.7894 313.778 36.6727C312.869 37.2622 306.996 36.988 305.388 37.0098C304.912 40.2858 305.109 47.2997 305.113 50.8896C305.136 53.0436 305.287 57.1157 305.06 59.1068C304.232 59.1278 303.401 59.1373 302.571 59.1354C301.799 59.1295 300.744 59.1312 300.172 58.5522C299.026 55.7911 300.215 44.2425 299.882 40.587C299.675 38.3124 299.651 34.8702 299.831 32.545C299.893 31.7385 300.357 31.4206 300.958 31.008Z" fill="#D8008F"/>
<path d="M142.342 30.9468C147.703 30.5146 147.124 33.0422 147.086 37.4262C147.053 41.2297 146.802 45.0745 146.982 48.8727C147.135 52.132 149.835 52.8618 152.028 54.6028C152.028 55.7783 152.364 57.9441 151.856 58.9089C151.753 59.106 151.146 59.1603 150.852 59.2198C144.388 58.38 140.964 52.5844 141.084 46.5009C141.161 42.6141 139.997 33.7563 142.342 30.9468Z" fill="#D8008F"/>
<path d="M161.26 30.9796C161.979 30.9213 164.961 30.6081 164.955 31.6929C164.928 36.9439 165.54 44.1175 165.033 49.2095C164.909 50.492 164.586 51.7475 164.076 52.931C162.643 56.2304 160.748 57.5005 157.561 58.7546L156.001 59.4751C153.767 59.2252 154.3 56.1214 154.291 54.3061C154.813 54.0378 156.838 52.992 157.226 52.7119C161.839 49.3786 158.83 38.4032 159.802 33.2181C160.047 31.9139 160.178 31.7566 161.26 30.9796Z" fill="#D8008F"/>
<path d="M367.396 30.9296C369.741 30.8459 371.819 30.9578 374.704 30.9366C376.501 30.9233 384.789 30.6395 386.708 31.2969C387.299 31.4988 387.072 35.158 386.937 36.2802C386.405 36.9517 386.534 36.76 385.579 37.0361C380.446 37.0187 375.31 37.0414 370.177 37.024C368.87 37.0198 367.025 36.9147 366.088 35.9386C365.593 35.1292 365.593 32.8126 366.124 31.9682C366.315 31.6673 367.069 31.1521 367.396 30.9296Z" fill="#D8008F"/>
<path d="M234.437 31.004C236.657 30.8125 252.548 30.5179 253.719 31.3831C254.205 31.7423 254.45 32.3674 254.541 32.9459C254.76 34.3996 254.397 35.881 253.533 37.07C251.082 37.1367 235.324 37.3281 234.269 36.4822C233.523 35.2063 233.299 32.1525 234.437 31.004Z" fill="#D8008F"/>
<path d="M367.042 42.1764L378.573 42.1315C379.886 42.1264 384.27 41.7193 384.962 42.8446C385.808 44.2222 385.791 46.9538 384.248 47.9729C381.812 48.1443 379.016 47.9398 376.395 47.9646C375.058 47.9775 366.586 48.4562 366.122 47.3208C365.552 45.9312 365.455 43.3059 367.042 42.1764Z" fill="#D8008F"/>
<path d="M234.949 42.1757C240.099 42.0127 245.398 42.1858 250.554 42.1483C253.306 42.1282 254.107 46.1705 251.885 47.9513C249.718 48.0442 234.856 48.4065 234.021 47.3659C233.557 46.2807 233.608 44.4318 233.744 43.2354C233.801 42.7264 234.504 42.4376 234.949 42.1757Z" fill="#D8008F"/>
<path d="M378.717 53.7109C380.98 53.6278 383.912 53.2835 386.083 53.9813C387.49 54.4335 387.257 57.6121 386.719 58.5961C385.795 59.2891 376.647 58.9693 374.874 58.9572C372.258 58.9184 369.569 59.3232 367.023 58.7832C365.163 58.3887 365.599 55.1097 366.487 54.1521C367.813 53.499 376.565 53.76 378.717 53.7109Z" fill="#D8008F"/>
<path d="M246.561 53.7163C253.158 53.7691 254.609 51.6098 254.435 59.0816C250.298 58.9061 246.055 58.9527 241.904 58.9506C239.813 58.9334 237.932 59.0125 235.86 59.1795C233.125 59.4001 233.634 55.7373 233.682 53.8598C237.72 53.6805 242.468 53.7517 246.561 53.7163Z" fill="#D8008F"/>
<path d="M352.754 42.2108C353.676 42.1244 354.731 42.0873 355.555 42.5785C356.165 42.9385 356.606 43.5278 356.78 44.2152C357.199 45.9107 357.239 55.8903 356.616 58.0753C356.511 58.4425 355.807 58.8951 355.261 59.0136C354.475 59.0492 351.898 59.2755 351.604 58.3804C350.259 54.2746 350.831 48.622 351.153 44.3078C351.229 43.2856 351.985 42.6863 352.754 42.2108Z" fill="#D8008F"/>
<path d="M173.288 30.9567C173.816 30.9296 175.727 30.7978 176.17 30.9364C178.613 31.7024 179.954 34.6261 181.515 36.5207C182.482 37.6932 183.569 39.388 183.176 40.9491C182.745 41.2763 182.942 41.2059 182.356 41.1873C181.009 41.1284 179.533 41.132 178.174 41.107C177.181 40.122 171.882 33.4828 171.867 32.4905C172.055 31.8495 172.756 31.3871 173.288 30.9567Z" fill="#D8008F"/>
<path d="M393.339 30.9894C394.159 30.9411 396.926 30.734 397.388 31.2581C398.714 32.7673 400.603 39.4615 399.502 41.1121C398.229 41.136 396.877 41.1089 395.597 41.1059C395.553 41.0646 395.506 41.0231 395.462 40.9811C395.174 40.7075 394.568 40.0977 394.434 39.7591C393.555 37.5169 391.432 33.0042 393.339 30.9894Z" fill="#D8008F"/>
<path d="M351.941 30.9709C355.153 30.6899 357.174 31.1021 357.212 35.1751C357.231 37.2905 356.849 39.2748 355.288 40.8279C355.114 40.9345 354.93 41.0258 354.742 41.1008C349.473 43.1266 350.682 33.7155 351.941 30.9709Z" fill="#D8008F"/>
<path d="M294.827 30.8339C296.554 30.869 297.806 31.7385 297.906 33.5598C297.954 34.521 297.617 35.4621 296.971 36.1751C296.251 36.9757 295.836 37.0687 294.8 37.1137C293.683 37.152 292.652 37.2573 291.802 36.4493C291.173 35.8503 290.813 35.0228 290.804 34.1544C290.777 31.3575 292.605 30.8527 294.827 30.8339Z" fill="#D8008F"/>
</svg>
