<svg width="116" height="78" viewBox="0 0 116 78" fill="none" xmlns="http://www.w3.org/2000/svg">
<path d="M76.3657 0.0658462C76.8727 -0.0655984 78.173 0.0358198 78.7878 0.0627106C83.7827 0.310915 88.69 1.47198 93.2667 3.48845C108.876 10.3093 118.918 29.5849 114.797 46.7028C109.185 70.0161 86.5285 82.3399 63.8562 74.88C61.8254 74.2118 59.5617 72.7836 57.4966 71.8677C52.2844 74.9878 46.3851 76.778 40.3183 77.0806C29.8364 77.3637 20.4693 74.229 12.6899 67.1295C5.12427 60.2106 0.578311 50.5961 0.0312219 40.3571C-0.376438 30.2013 3.22118 20.292 10.0488 12.7645C19.8778 1.84786 35.0842 -2.48205 49.1875 1.61998C52.1215 2.49658 55.0499 4.04703 57.8472 5.08172C58.315 5.25476 60.5252 3.77727 61.3784 3.40409C66.3715 1.21956 70.9526 0.294534 76.3657 0.0658462ZM54.8868 69.8428C43.9528 60.9852 37.7722 49.1846 39.233 34.7912C40.4723 22.5781 45.6498 15.0508 54.8238 7.35598C49.4419 5.79177 44.5536 2.80902 38.0337 3.4424C26.476 4.71983 18.917 7.25548 11.2137 16.4881C-0.647744 30.7046 1.08661 53.7649 15.7368 65.4708C20.7625 69.433 26.7071 72.0616 33.0191 73.1137C34.1544 73.3123 35.269 73.3186 36.3284 73.4757C41.4672 73.7721 45.3013 73.3894 50.2472 71.6438C51.3338 71.2602 54.1146 70.0278 54.8868 69.8428ZM81.8368 73.2646C83.6541 73.1798 84.897 72.719 86.5976 72.2892C113.154 65.5786 121.147 31.5393 101.447 13.0243C95.5509 7.48236 84.6792 3.00528 76.6417 3.40559C76.4856 3.41403 76.3295 3.42719 76.174 3.44503C69.9305 4.08718 66.951 4.55145 61.2991 7.48987C63.0711 9.18318 65.7961 11.6692 67.3425 13.4595C73.2832 20.3723 76.6564 29.1244 76.8922 38.237C77.0417 44.6912 74.7444 52.6177 71.4454 58.1821C69.2169 61.9408 64.5077 67.3508 60.8066 69.7048C67.6524 73.1839 74.3033 74.0404 81.8368 73.2646ZM68.0198 57.0992C68.5333 56.287 70.233 54.0591 70.0135 53.0919C69.8413 52.3339 46.7967 29.6101 44.232 27.2266C43.8175 28.4279 42.2733 32.7412 43.0902 33.4668C45.8144 35.8861 65.8292 57.28 67.4016 57.7943C67.7376 57.5211 67.7922 57.4654 68.0198 57.0992ZM57.0754 10.1575C57.4002 12.0155 65.6559 19.2367 67.3126 21.1365C67.6552 21.5296 69.7915 23.7069 70.1376 23.947C70.2707 24.0394 70.408 24.1252 70.5493 24.2042C68.5623 20.7381 62.1027 9.27169 57.0754 10.1575ZM45.0551 52.6325C45.764 53.6899 46.333 54.6051 46.8548 55.764C48.6185 59.6813 53.5868 66.066 57.7485 67.3548C58.3573 67.3124 58.5402 67.1596 59.0393 66.8335L59.3274 66.5879C59.2351 66.319 45.8866 52.9461 45.5697 52.7842C45.4102 52.7026 45.2322 52.656 45.0551 52.6325ZM53.2049 12.9174C51.9772 14.2174 51.2014 15.1139 50.1137 16.5309C51.8388 18.508 53.7347 20.0354 55.5293 21.9048C60.4242 27.0037 65.2447 32.1786 70.6031 36.8045C71.0802 37.2164 71.5852 37.6352 72.0172 38.0918C72.5636 38.6981 72.4926 38.8214 73.1544 38.9827C73.5976 38.4357 73.4394 37.4991 73.3796 36.8278C73.1618 34.3795 72.5373 30.8055 70.4296 29.1829C66.4491 26.1181 63.0452 22.3371 59.4681 18.8237C57.7553 17.1412 55.1115 14.2207 53.2049 12.9174ZM42.1919 37.8064C42.0099 40.3511 42.1053 44.639 43.9412 46.5506C47.5759 50.3348 51.6168 54.04 55.4361 57.6479C56.965 59.0922 60.9411 63.3174 62.3603 64.3197L63.9668 62.8082C64.5538 61.9097 64.7377 61.6215 65.1214 60.587C58.8499 53.385 49.293 44.1625 42.1919 37.8064ZM71.3145 48.985L71.6963 49.2141C72.2553 48.3633 72.9019 45.3387 72.6731 44.3534C72.442 43.3598 50.2177 21.2984 48.1181 19.416C47.3702 20.4891 45.6972 22.3867 45.9447 23.7408C46.0428 24.2777 68.9934 47.2024 71.3145 48.985Z" fill="#D8008F"/>
</svg>
